# Blender v2.82 (sub 7) OBJ File: 'Tileset.blend'
# www.blender.org
o DoorRight_low_Cube.027
v -0.200000 0.430227 -2.000000
v -0.200000 2.569773 -2.000000
v -0.200000 0.000000 0.000000
v -0.200000 3.000000 0.000000
v 0.000000 0.430227 -2.000000
v 0.000000 2.569773 -2.000000
v 0.000000 0.000000 0.000000
v 0.000000 3.000000 0.000000
v -0.200000 0.000000 -1.000000
v -0.200000 3.000000 -1.000000
v 0.000000 0.000000 -1.000000
v 0.000000 3.000000 -1.000000
vt 0.405853 0.403923
vt 0.570117 0.321791
vt 0.405853 0.321791
vt 0.405853 0.568187
vt 0.570117 0.403923
vt 0.405853 0.732451
vt 0.570117 0.650319
vt 0.405853 0.650319
vt 0.405853 0.896715
vt 0.570117 0.732451
vt 0.241589 0.732451
vt 0.241589 0.650319
vt 0.734380 0.650319
vt 0.734380 0.568187
vt 0.570117 0.568187
vt 0.241589 0.568187
vt 0.570117 0.239659
vt 0.405853 0.239659
vt 0.570117 0.896715
vt 0.734380 0.732451
vn -1.0000 0.0000 0.0000
vn 0.0000 0.0000 1.0000
vn 1.0000 0.0000 0.0000
vn 0.0000 0.0000 -1.0000
vn 0.0000 -0.9186 -0.3952
vn 0.0000 0.9186 -0.3952
vn 0.0000 1.0000 0.0000
vn 0.0000 -1.0000 0.0000
s off
f 3/1/1 10/2/1 9/3/1
f 7/4/2 4/5/2 3/1/2
f 5/6/3 12/7/3 11/8/3
f 1/9/4 6/10/4 5/6/4
f 1/11/5 11/8/5 9/12/5
f 6/10/6 10/13/6 12/7/6
f 12/7/7 4/14/7 8/15/7
f 9/12/8 7/4/8 3/16/8
f 11/8/3 8/15/3 7/4/3
f 9/3/1 2/17/1 1/18/1
f 3/1/1 4/5/1 10/2/1
f 7/4/2 8/15/2 4/5/2
f 5/6/3 6/10/3 12/7/3
f 1/9/4 2/19/4 6/10/4
f 1/11/5 5/6/5 11/8/5
f 6/10/6 2/20/6 10/13/6
f 12/7/7 10/13/7 4/14/7
f 9/12/8 11/8/8 7/4/8
f 11/8/3 12/7/3 8/15/3
f 9/3/1 10/2/1 2/17/1
