# Blender v2.80 (sub 75) OBJ File: 'sednium.blend'
# www.blender.org
o Cube
v 0.303750 0.250000 -0.900000
v 0.375000 0.000000 -1.000000
v 0.303750 0.250000 0.900000
v 0.375000 0.000000 1.000000
v -0.303750 0.250000 -0.900000
v -0.375000 0.000000 -1.000000
v -0.303750 0.250000 0.900000
v -0.375000 0.000000 1.000000
v -0.184824 0.630056 -0.832984
v -0.285133 0.397412 -0.948707
v 1.245852 0.273348 0.199453
v 1.304506 0.001070 0.198446
v -0.522921 0.714353 -0.335350
v -0.702537 0.501483 -0.334343
v 0.907754 0.357645 0.697088
v 0.887102 0.105141 0.812810
vt 0.625000 0.000000
vt 0.375000 0.250000
vt 0.375000 0.000000
vt 0.625000 0.250000
vt 0.375000 0.500000
vt 0.375000 0.250000
vt 0.625000 0.500000
vt 0.375000 0.750000
vt 0.625000 0.750000
vt 0.375000 1.000000
vt 0.375000 0.500000
vt 0.125000 0.750000
vt 0.125000 0.500000
vt 0.875000 0.500000
vt 0.625000 0.500000
vt 0.625000 0.000000
vt 0.375000 0.250000
vt 0.375000 0.000000
vt 0.625000 0.250000
vt 0.375000 0.500000
vt 0.375000 0.250000
vt 0.625000 0.500000
vt 0.375000 0.750000
vt 0.625000 0.750000
vt 0.375000 1.000000
vt 0.125000 0.500000
vt 0.375000 0.750000
vt 0.125000 0.750000
vt 0.875000 0.500000
vt 0.625000 0.500000
vt 0.625000 0.250000
vt 0.625000 0.750000
vt 0.625000 1.000000
vt 0.375000 0.750000
vt 0.875000 0.750000
vt 0.625000 0.250000
vt 0.625000 0.750000
vt 0.625000 1.000000
vt 0.375000 0.500000
vt 0.875000 0.750000
vn 0.0000 1.0000 0.0000
vn 0.0000 0.3714 0.9285
vn -0.9617 0.2741 0.0000
vn 0.0000 -1.0000 0.0000
vn 0.9617 0.2741 0.0000
vn 0.0000 0.3714 -0.9285
vn 0.2419 0.9703 0.0000
vn 0.8278 0.1764 0.5326
vn -0.4689 0.3994 0.7878
vn -0.2419 -0.9703 0.0000
vn 0.6015 0.1325 -0.7878
vn -0.6481 0.5444 -0.5326
s off
f 5/1/1 3/2/1 1/3/1
f 3/4/2 8/5/2 4/6/2
f 7/7/3 6/8/3 8/5/3
f 2/9/4 8/10/4 6/8/4
f 1/11/5 4/12/5 2/13/5
f 5/14/6 2/9/6 6/15/6
f 13/16/7 11/17/7 9/18/7
f 11/19/8 16/20/8 12/21/8
f 15/22/9 14/23/9 16/20/9
f 10/24/10 16/25/10 14/23/10
f 10/26/11 11/27/11 12/28/11
f 13/29/12 10/24/12 14/30/12
f 5/1/1 7/31/1 3/2/1
f 3/4/2 7/7/2 8/5/2
f 7/7/3 5/32/3 6/8/3
f 2/9/4 4/33/4 8/10/4
f 1/11/5 3/34/5 4/12/5
f 5/14/6 1/35/6 2/9/6
f 13/16/7 15/36/7 11/17/7
f 11/19/8 15/22/8 16/20/8
f 15/22/9 13/37/9 14/23/9
f 10/24/10 12/38/10 16/25/10
f 10/26/11 9/39/11 11/27/11
f 13/29/12 9/40/12 10/24/12
