# Blender v2.80 (sub 75) OBJ File: 'Tileset.blend'
# www.blender.org
o chest_low_Cube.059
v 2.050000 0.000000 25.000000
v 2.000000 0.000000 24.900000
v 2.050000 0.950000 25.000000
v 2.000000 0.950000 24.900000
v 2.000000 0.000000 23.100000
v 2.050000 0.000000 23.000000
v 2.050000 0.950000 23.000000
v 2.000000 0.950000 23.100000
v 3.000000 0.000000 24.900000
v 2.950000 0.000000 25.000000
v 2.950000 0.950000 25.000000
v 3.000000 0.950000 24.900000
v 2.950000 0.000000 23.000000
v 3.000000 0.000000 23.100000
v 3.000000 0.950000 23.100000
v 2.950000 0.950000 23.000000
v 1.971373 0.950000 24.923716
v 2.038142 0.950000 25.057255
v 2.038142 0.950000 22.942745
v 1.971373 0.950000 23.076284
v 2.961858 0.950000 25.057255
v 3.028627 0.950000 24.923716
v 3.028627 0.950000 23.076284
v 2.961858 0.950000 22.942745
v 1.977774 -0.019529 24.918413
v 2.040794 -0.019529 25.044451
v 2.040794 -0.019529 22.955549
v 1.977774 -0.019529 23.081587
v 3.022226 -0.019529 23.081587
v 2.959206 -0.019529 22.955549
v 2.959206 -0.019529 25.044451
v 3.022226 -0.019529 24.918413
v 2.050000 0.940000 25.000000
v 2.050000 1.090000 24.900000
v 2.000000 0.940000 24.900000
v 2.050000 1.090000 23.100000
v 2.050000 0.940000 23.000000
v 2.000000 0.940000 23.100000
v 2.950000 1.090000 24.900000
v 2.950000 0.940000 25.000000
v 3.000000 0.940000 24.900000
v 2.950000 1.090000 23.100000
v 3.000000 0.940000 23.100000
v 2.950000 0.940000 23.000000
v 1.972373 0.949209 24.921175
v 2.039413 0.949209 25.055254
v 2.034872 1.112414 24.930258
v 1.972373 0.949209 23.078825
v 2.034872 1.112414 23.069742
v 2.039413 0.949209 22.944746
v 3.027627 0.949209 24.921175
v 2.965128 1.112414 24.930258
v 2.960587 0.949209 25.055254
v 2.960587 0.949209 22.944746
v 2.965128 1.112414 23.069742
v 3.027627 0.949209 23.078825
vt 0.483565 0.700469
vt 0.249371 0.478600
vt 0.483565 0.478600
vt 0.483565 0.461169
vt 0.249371 0.239300
vt 0.483565 0.239300
vt 0.483565 0.221869
vt 0.249371 0.000000
vt 0.483565 0.000000
vt 0.483565 0.717900
vt 0.249371 0.700469
vt 0.249371 0.939769
vt 0.483566 0.957201
vt 0.249371 0.957201
vt 0.249371 0.221869
vt 0.249371 0.461169
vt 0.483566 0.939769
vt 0.249371 0.717900
vt 0.483566 0.866780
vt 0.717760 0.879106
vt 0.495892 0.879106
vt 0.717760 0.632585
vt 0.483566 0.644912
vt 0.495892 0.632585
vt 0.730086 0.644912
vt 0.007594 0.500332
vt 0.247509 0.273586
vt 0.247176 0.500398
vt 0.008553 0.750275
vt 0.246955 0.522502
vt 0.247478 0.749042
vt 0.010469 1.000000
vt 0.247527 0.771094
vt 0.249371 0.997400
vt 0.008359 0.272477
vt 0.247474 0.251524
vt 0.249371 0.003273
vt 0.010421 0.022934
vt 0.009895 0.000000
vt 0.008684 0.772512
vt 0.007713 0.522691
vt 0.008647 0.250224
vt 0.249132 0.025291
vt 0.001392 0.772411
vt 0.003298 0.997100
vt 0.001309 0.250462
vt 0.001021 0.272286
vt 0.003321 0.023191
vt 0.001232 0.750625
vt 0.002291 0.003643
vt 0.000000 0.500658
vt 0.000312 0.522613
vt 0.525678 0.369453
vt 0.748836 0.579608
vt 0.530284 0.587978
vt 0.755454 0.326725
vt 0.779006 0.345964
vt 0.744230 0.361084
vt 0.781594 0.590782
vt 0.761855 0.611514
vt 0.492919 0.358280
vt 0.512659 0.337547
vt 0.519060 0.622336
vt 0.495508 0.603098
vt 0.754677 0.046498
vt 0.521877 0.269978
vt 0.524333 0.039812
vt 0.763678 0.316476
vt 0.752221 0.276664
vt 0.792988 0.291937
vt 0.767456 0.008757
vt 0.792988 0.035068
vt 0.509098 0.307719
vt 0.483566 0.281408
vt 0.483566 0.024539
vt 0.512875 0.000000
vt 0.766027 0.620482
vt 0.758434 0.316476
vt 0.483566 0.354461
vt 0.508487 0.328580
vt 0.483566 0.610130
vt 0.516079 0.632585
vt 0.790948 0.594601
vt 0.790948 0.338932
vt 0.730086 0.866780
vn 0.0000 0.0000 -1.0000
vn -1.0000 0.0000 0.0000
vn 0.0000 0.0000 1.0000
vn 0.8944 0.0000 -0.4472
vn 0.8944 0.0000 0.4472
vn -0.8944 0.0000 0.4472
vn -0.8944 0.0000 -0.4472
vn 1.0000 0.0000 0.0000
vn 0.0000 1.0000 0.0000
vn -0.0000 -0.0132 0.9999
vn 1.0000 -0.0066 0.0000
vn -0.0000 -0.0132 -0.9999
vn -0.8944 -0.0084 0.4472
vn -0.8944 -0.0084 -0.4472
vn 0.8944 -0.0084 -0.4472
vn 0.8944 -0.0084 0.4472
vn -1.0000 -0.0066 0.0000
vn 0.0000 -1.0000 0.0000
vn 0.8571 -0.2857 -0.4286
vn 0.8571 -0.2857 0.4286
vn -0.8571 -0.2857 -0.4286
vn -0.8571 -0.2857 0.4286
vn 0.9487 -0.3162 0.0000
vn 0.0000 -0.5547 0.8320
vn -0.9487 -0.3162 0.0000
vn 0.0000 -0.5547 -0.8320
vn -0.8525 0.3027 0.4262
vn -0.8525 0.3027 -0.4262
vn 0.8525 0.3027 0.4262
vn 0.8525 0.3027 -0.4262
vn -0.9339 0.3576 0.0000
vn 0.0000 0.6080 -0.7939
vn 0.9339 0.3576 0.0000
vn 0.0000 0.6080 0.7939
vn -0.2327 -0.9656 -0.1163
vn 0.0000 -0.9864 0.1644
vn 0.2327 -0.9656 0.1163
vn 0.3162 -0.9487 0.0000
vn 0.0000 -0.9864 -0.1644
vn -0.3162 -0.9487 0.0000
vn -0.2327 -0.9656 0.1163
vn 0.2327 -0.9656 -0.1163
s off
f 1/1/1 11/2/1 10/3/1
f 9/4/2 15/5/2 14/6/2
f 13/7/3 7/8/3 6/9/3
f 2/10/4 3/11/4 1/1/4
f 8/12/5 6/13/5 7/14/5
f 16/15/6 14/6/6 15/5/6
f 12/16/7 10/3/7 11/2/7
f 5/17/8 4/18/8 2/10/8
f 5/19/9 13/20/9 6/21/9
f 10/22/9 2/23/9 1/24/9
f 9/25/9 5/19/9 2/23/9
f 21/26/10 26/27/10 31/28/10
f 23/29/11 32/30/11 29/31/11
f 19/32/12 30/33/12 27/34/12
f 18/35/13 25/36/13 26/27/13
f 27/37/14 20/38/14 19/39/14
f 29/31/15 24/40/15 23/29/15
f 31/28/16 22/41/16 21/26/16
f 17/42/17 28/43/17 25/36/17
f 16/44/9 19/32/9 7/45/9
f 4/46/9 18/35/9 3/47/9
f 8/48/9 17/42/9 4/46/9
f 15/49/9 24/40/9 16/44/9
f 7/50/9 20/38/9 8/48/9
f 3/47/9 21/26/9 11/51/9
f 12/52/9 23/29/9 15/49/9
f 11/51/9 22/41/9 12/52/9
f 39/53/18 36/54/18 42/55/18
f 33/56/19 35/57/19 34/58/19
f 36/54/20 38/59/20 37/60/20
f 39/53/21 41/61/21 40/62/21
f 42/55/22 44/63/22 43/64/22
f 35/57/23 36/54/23 34/58/23
f 37/60/24 42/55/24 36/54/24
f 43/64/25 39/53/25 42/55/25
f 40/62/26 34/58/26 39/53/26
f 49/65/9 52/66/9 55/67/9
f 46/68/27 47/69/27 45/70/27
f 49/65/28 50/71/28 48/72/28
f 52/66/29 53/73/29 51/74/29
f 55/67/30 56/75/30 54/76/30
f 49/65/31 45/70/31 47/69/31
f 55/67/32 50/71/32 49/65/32
f 52/66/33 56/75/33 55/67/33
f 47/69/34 53/73/34 52/66/34
f 38/59/35 50/77/35 37/60/35
f 40/62/36 46/78/36 33/56/36
f 40/62/37 51/79/37 53/80/37
f 41/61/38 56/81/38 51/79/38
f 44/63/39 50/77/39 54/82/39
f 35/57/40 48/83/40 38/59/40
f 33/56/41 45/84/41 35/57/41
f 44/63/42 56/81/42 43/64/42
f 1/1/1 3/11/1 11/2/1
f 9/4/2 12/16/2 15/5/2
f 13/7/3 16/15/3 7/8/3
f 2/10/4 4/18/4 3/11/4
f 8/12/5 5/17/5 6/13/5
f 16/15/6 13/7/6 14/6/6
f 12/16/7 9/4/7 10/3/7
f 5/17/8 8/12/8 4/18/8
f 5/19/9 14/85/9 13/20/9
f 10/22/9 9/25/9 2/23/9
f 9/25/9 14/85/9 5/19/9
f 21/26/10 18/35/10 26/27/10
f 23/29/11 22/41/11 32/30/11
f 19/32/12 24/40/12 30/33/12
f 18/35/13 17/42/13 25/36/13
f 27/37/14 28/43/14 20/38/14
f 29/31/15 30/33/15 24/40/15
f 31/28/16 32/30/16 22/41/16
f 17/42/17 20/38/17 28/43/17
f 16/44/9 24/40/9 19/32/9
f 4/46/9 17/42/9 18/35/9
f 8/48/9 20/38/9 17/42/9
f 15/49/9 23/29/9 24/40/9
f 7/50/9 19/39/9 20/38/9
f 3/47/9 18/35/9 21/26/9
f 12/52/9 22/41/9 23/29/9
f 11/51/9 21/26/9 22/41/9
f 39/53/18 34/58/18 36/54/18
f 35/57/23 38/59/23 36/54/23
f 37/60/24 44/63/24 42/55/24
f 43/64/25 41/61/25 39/53/25
f 40/62/26 33/56/26 34/58/26
f 49/65/9 47/69/9 52/66/9
f 49/65/31 48/72/31 45/70/31
f 55/67/32 54/76/32 50/71/32
f 52/66/33 51/74/33 56/75/33
f 47/69/34 46/68/34 53/73/34
f 38/59/35 48/83/35 50/77/35
f 40/62/36 53/80/36 46/78/36
f 40/62/37 41/61/37 51/79/37
f 41/61/38 43/64/38 56/81/38
f 44/63/39 37/60/39 50/77/39
f 35/57/40 45/84/40 48/83/40
f 33/56/41 46/78/41 45/84/41
f 44/63/42 54/82/42 56/81/42
