# Blender v2.80 (sub 75) OBJ File: 'Tileset.blend'
# www.blender.org
o chest_low_Cube.044
v 2.050000 0.000000 25.000000
v 2.000000 0.000000 24.900000
v 2.050000 0.950000 25.000000
v 2.000000 0.950000 24.900000
v 2.000000 0.000000 23.100000
v 2.050000 0.000000 23.000000
v 2.050000 0.950000 23.000000
v 2.000000 0.950000 23.100000
v 3.000000 0.000000 24.900000
v 2.950000 0.000000 25.000000
v 2.950000 0.950000 25.000000
v 3.000000 0.950000 24.900000
v 2.950000 0.000000 23.000000
v 3.000000 0.000000 23.100000
v 3.000000 0.950000 23.100000
v 2.950000 0.950000 23.000000
v 1.971373 0.950000 24.923716
v 2.038142 0.950000 25.057255
v 2.038142 0.950000 22.942745
v 1.971373 0.950000 23.076284
v 2.961858 0.950000 25.057255
v 3.028627 0.950000 24.923716
v 3.028627 0.950000 23.076284
v 2.961858 0.950000 22.942745
v 1.977774 -0.019529 24.918413
v 2.040794 -0.019529 25.044451
v 2.040794 -0.019529 22.955549
v 1.977774 -0.019529 23.081587
v 3.022226 -0.019529 23.081587
v 2.959206 -0.019529 22.955549
v 2.959206 -0.019529 25.044451
v 3.022226 -0.019529 24.918413
v 2.049999 0.939993 25.000000
v 1.999999 0.939998 24.900000
v 2.049999 0.939993 23.000000
v 1.999999 0.939998 23.100000
v 2.949999 0.939910 25.000000
v 2.999999 0.939905 24.900000
v 2.999999 0.939905 23.100000
v 2.949999 0.939910 23.000000
v 1.972373 0.949209 24.921175
v 2.039413 0.949203 25.055254
v 1.972373 0.949209 23.078825
v 2.039413 0.949203 22.944746
v 3.027627 0.949111 24.921175
v 2.960587 0.949118 25.055254
v 2.960587 0.949118 22.944746
v 3.027627 0.949111 23.078825
v 1.999999 0.939998 24.900000
v 2.049999 0.939993 25.000000
v 2.050013 1.089993 24.900000
v 1.999999 0.939998 23.100000
v 2.050013 1.089993 23.100000
v 2.049999 0.939993 23.000000
v 2.999999 0.939905 24.900000
v 2.950013 1.089910 24.900000
v 2.949999 0.939910 25.000000
v 2.949999 0.939910 23.000000
v 2.950013 1.089910 23.100000
v 2.999999 0.939905 23.100000
v 1.972373 0.949209 24.921175
v 2.039413 0.949203 25.055254
v 2.034887 1.112408 24.930258
v 1.972373 0.949209 23.078825
v 2.034887 1.112408 23.069742
v 2.039413 0.949203 22.944746
v 3.027627 0.949111 24.921175
v 2.965144 1.112322 24.930258
v 2.960587 0.949118 25.055254
v 2.960587 0.949118 22.944746
v 2.965144 1.112322 23.069742
v 3.027627 0.949111 23.078825
vt 0.545333 0.708525
vt 0.311138 0.486657
vt 0.545333 0.486657
vt 0.545333 0.469225
vt 0.311138 0.247357
vt 0.545333 0.247357
vt 0.545333 0.229925
vt 0.311138 0.008057
vt 0.545333 0.008057
vt 0.545333 0.725957
vt 0.311138 0.708525
vt 0.311138 0.947826
vt 0.545333 0.965257
vt 0.311138 0.965257
vt 0.311138 0.229925
vt 0.311138 0.469225
vt 0.545333 0.947826
vt 0.311138 0.725957
vt 0.720419 0.975781
vt 0.954614 0.988107
vt 0.732745 0.988107
vt 0.954614 0.741586
vt 0.720419 0.753912
vt 0.732745 0.741586
vt 0.966940 0.753913
vt 0.035175 0.501673
vt 0.273603 0.276332
vt 0.273272 0.501738
vt 0.036128 0.750067
vt 0.273052 0.523705
vt 0.273572 0.748841
vt 0.038033 0.998244
vt 0.273621 0.770757
vt 0.275453 0.995660
vt 0.035935 0.275230
vt 0.273568 0.254407
vt 0.275453 0.007695
vt 0.037984 0.027234
vt 0.037462 0.004442
vt 0.036258 0.772166
vt 0.035293 0.523893
vt 0.036221 0.253114
vt 0.275216 0.029577
vt 0.029011 0.772065
vt 0.030905 0.995362
vt 0.028929 0.253352
vt 0.028643 0.275040
vt 0.030929 0.027489
vt 0.028853 0.750415
vt 0.029904 0.008062
vt 0.027628 0.501996
vt 0.027938 0.523816
vt 0.631991 0.387537
vt 0.604985 0.415583
vt 0.631991 0.387537
vt 0.925140 0.406375
vt 0.927945 0.671673
vt 0.925140 0.406375
vt 0.640219 0.716974
vt 0.911075 0.703858
vt 0.640219 0.716974
vt 0.938081 0.398755
vt 0.902848 0.374421
vt 0.938081 0.398755
vt 0.927945 0.671673
vt 0.906554 0.694140
vt 0.636512 0.397255
vt 0.899618 0.385527
vt 0.636512 0.397255
vt 0.643449 0.705867
vt 0.617926 0.685019
vt 0.643449 0.705867
vt 0.938081 0.675811
vt 0.938081 0.675811
vt 0.911075 0.703858
vt 0.617926 0.685019
vt 0.615121 0.419722
vt 0.902848 0.374421
vt 0.604985 0.692639
vt 0.604985 0.692639
vt 0.615121 0.419722
vt 0.906554 0.694140
vt 0.899618 0.385527
vt 0.604985 0.415583
vt 0.650620 0.431830
vt 0.892446 0.659565
vt 0.655612 0.668634
vt 0.887455 0.422760
vt 0.908422 0.055738
vt 0.650112 0.303706
vt 0.652838 0.048320
vt 0.918409 0.355299
vt 0.905696 0.311125
vt 0.950931 0.328071
vt 0.922601 0.013861
vt 0.950930 0.043055
vt 0.635933 0.345583
vt 0.607603 0.316389
vt 0.607603 0.031373
vt 0.640125 0.004145
vt 0.966940 0.975781
vn 0.0000 0.0000 -1.0000
vn -1.0000 0.0000 0.0000
vn 0.0000 0.0000 1.0000
vn 0.8944 0.0000 -0.4472
vn 0.8944 0.0000 0.4472
vn -0.8944 0.0000 0.4472
vn -0.8944 0.0000 -0.4472
vn 1.0000 0.0000 0.0000
vn 0.0000 1.0000 0.0000
vn -0.0000 -0.0132 0.9999
vn 1.0000 -0.0066 0.0000
vn -0.0000 -0.0132 -0.9999
vn -0.8944 -0.0084 0.4472
vn -0.8944 -0.0084 -0.4472
vn 0.8944 -0.0084 -0.4472
vn 0.8944 -0.0084 0.4472
vn -1.0000 -0.0066 0.0000
vn -0.2328 -0.9655 -0.1163
vn -0.0001 -0.9864 0.1644
vn 0.2326 -0.9656 0.1163
vn 0.3161 -0.9487 0.0000
vn -0.0001 -0.9864 -0.1644
vn -0.3163 -0.9487 0.0000
vn -0.2328 -0.9655 0.1163
vn 0.2326 -0.9656 -0.1163
vn -0.0001 -1.0000 0.0000
vn 0.8571 -0.2858 -0.4286
vn 0.8571 -0.2858 0.4286
vn -0.8572 -0.2856 -0.4286
vn -0.8572 -0.2856 0.4286
vn 0.9487 -0.3163 0.0000
vn -0.0001 -0.5547 0.8320
vn -0.9487 -0.3161 0.0000
vn -0.0000 -0.5547 -0.8320
vn 0.0001 1.0000 0.0000
vn -0.8524 0.3028 0.4262
vn -0.8524 0.3028 -0.4262
vn 0.8525 0.3026 0.4262
vn 0.8525 0.3026 -0.4262
vn -0.9338 0.3577 0.0000
vn 0.0001 0.6080 -0.7939
vn 0.9339 0.3575 0.0000
vn 0.0001 0.6080 0.7939
vn -0.0000 -0.5547 0.8320
vn -0.0001 -0.5547 -0.8320
s off
f 1/1/1 11/2/1 10/3/1
f 9/4/2 15/5/2 14/6/2
f 13/7/3 7/8/3 6/9/3
f 2/10/4 3/11/4 1/1/4
f 8/12/5 6/13/5 7/14/5
f 16/15/6 14/6/6 15/5/6
f 12/16/7 10/3/7 11/2/7
f 5/17/8 4/18/8 2/10/8
f 5/19/9 13/20/9 6/21/9
f 10/22/9 2/23/9 1/24/9
f 9/25/9 5/19/9 2/23/9
f 21/26/10 26/27/10 31/28/10
f 23/29/11 32/30/11 29/31/11
f 19/32/12 30/33/12 27/34/12
f 18/35/13 25/36/13 26/27/13
f 27/37/14 20/38/14 19/39/14
f 29/31/15 24/40/15 23/29/15
f 31/28/16 22/41/16 21/26/16
f 17/42/17 28/43/17 25/36/17
f 16/44/9 19/32/9 7/45/9
f 4/46/9 18/35/9 3/47/9
f 8/48/9 17/42/9 4/46/9
f 15/49/9 24/40/9 16/44/9
f 7/50/9 20/38/9 8/48/9
f 3/47/9 21/26/9 11/51/9
f 12/52/9 23/29/9 15/49/9
f 11/51/9 22/41/9 12/52/9
f 46/53/3 67/54/3 69/55/3
f 34/56/3 52/57/3 49/58/3
f 47/59/3 66/60/3 70/61/3
f 41/62/3 62/63/3 61/64/3
f 36/65/3 54/66/3 52/57/3
f 37/67/3 50/68/3 57/69/3
f 40/70/3 60/71/3 58/72/3
f 43/73/3 61/64/3 64/74/3
f 44/75/3 64/74/3 66/60/3
f 39/76/3 55/77/3 60/71/3
f 42/78/3 69/55/3 62/63/3
f 48/79/3 70/61/3 72/80/3
f 38/81/3 57/69/3 55/77/3
f 35/82/3 58/72/3 54/66/3
f 33/83/3 49/58/3 50/68/3
f 45/84/3 72/80/3 67/54/3
f 35/82/18 43/73/18 44/75/18
f 37/67/19 42/78/19 33/83/19
f 37/67/20 45/84/20 46/53/20
f 39/76/21 45/84/21 38/81/21
f 35/82/22 47/59/22 40/70/22
f 34/56/23 43/73/23 36/65/23
f 33/83/24 41/62/24 34/56/24
f 40/70/25 48/79/25 39/76/25
f 56/85/26 53/86/26 59/87/26
f 50/68/27 49/58/27 51/88/27
f 53/86/28 52/57/28 54/66/28
f 56/85/29 55/77/29 57/69/29
f 59/87/30 58/72/30 60/71/30
f 49/58/31 53/86/31 51/88/31
f 54/66/32 59/87/32 53/86/32
f 60/71/33 56/85/33 59/87/33
f 57/69/34 51/88/34 56/85/34
f 65/89/35 68/90/35 71/91/35
f 62/92/36 63/93/36 61/94/36
f 65/89/37 66/95/37 64/96/37
f 68/90/38 69/97/38 67/98/38
f 71/91/39 72/99/39 70/100/39
f 65/89/40 61/94/40 63/93/40
f 71/91/41 66/95/41 65/89/41
f 68/90/42 72/99/42 71/91/42
f 68/90/43 62/92/43 69/97/43
f 1/1/1 3/11/1 11/2/1
f 9/4/2 12/16/2 15/5/2
f 13/7/3 16/15/3 7/8/3
f 2/10/4 4/18/4 3/11/4
f 8/12/5 5/17/5 6/13/5
f 16/15/6 13/7/6 14/6/6
f 12/16/7 9/4/7 10/3/7
f 5/17/8 8/12/8 4/18/8
f 5/19/9 14/101/9 13/20/9
f 10/22/9 9/25/9 2/23/9
f 9/25/9 14/101/9 5/19/9
f 21/26/10 18/35/10 26/27/10
f 23/29/11 22/41/11 32/30/11
f 19/32/12 24/40/12 30/33/12
f 18/35/13 17/42/13 25/36/13
f 27/37/14 28/43/14 20/38/14
f 29/31/15 30/33/15 24/40/15
f 31/28/16 32/30/16 22/41/16
f 17/42/17 20/38/17 28/43/17
f 16/44/9 24/40/9 19/32/9
f 4/46/9 17/42/9 18/35/9
f 8/48/9 20/38/9 17/42/9
f 15/49/9 23/29/9 24/40/9
f 7/50/9 19/39/9 20/38/9
f 3/47/9 18/35/9 21/26/9
f 12/52/9 22/41/9 23/29/9
f 11/51/9 21/26/9 22/41/9
f 46/53/3 45/84/3 67/54/3
f 34/56/3 36/65/3 52/57/3
f 47/59/3 44/75/3 66/60/3
f 41/62/3 42/78/3 62/63/3
f 36/65/3 35/82/3 54/66/3
f 37/67/3 33/83/3 50/68/3
f 40/70/3 39/76/3 60/71/3
f 43/73/3 41/62/3 61/64/3
f 44/75/3 43/73/3 64/74/3
f 39/76/3 38/81/3 55/77/3
f 42/78/3 46/53/3 69/55/3
f 48/79/3 47/59/3 70/61/3
f 38/81/3 37/67/3 57/69/3
f 35/82/3 40/70/3 58/72/3
f 33/83/3 34/56/3 49/58/3
f 45/84/3 48/79/3 72/80/3
f 35/82/18 36/65/18 43/73/18
f 37/67/19 46/53/19 42/78/19
f 37/67/20 38/81/20 45/84/20
f 39/76/21 48/79/21 45/84/21
f 35/82/22 44/75/22 47/59/22
f 34/56/23 41/62/23 43/73/23
f 33/83/24 42/78/24 41/62/24
f 40/70/25 47/59/25 48/79/25
f 56/85/26 51/88/26 53/86/26
f 49/58/31 52/57/31 53/86/31
f 54/66/44 58/72/44 59/87/44
f 60/71/33 55/77/33 56/85/33
f 57/69/45 50/68/45 51/88/45
f 65/89/35 63/93/35 68/90/35
f 65/89/40 64/96/40 61/94/40
f 71/91/41 70/100/41 66/95/41
f 68/90/42 67/98/42 72/99/42
f 68/90/43 63/93/43 62/92/43
