# Blender v2.80 (sub 75) OBJ File: 'Tileset.blend'
# www.blender.org
o chest_low_Cube.044
v 0.033780 0.997582 -0.000000
v -0.001579 0.962230 -0.100000
v 0.033780 0.997582 -2.000000
v -0.001579 0.962230 -1.900000
v 0.670235 1.633919 -0.000000
v 0.705594 1.669271 -0.100000
v 0.705594 1.669271 -1.900000
v 0.670235 1.633919 -2.000000
v -0.027627 0.949209 -0.078826
v 0.019782 0.996609 0.055253
v -0.027627 0.949209 -1.921174
v 0.019782 0.996609 -2.055254
v 0.718619 1.695317 -0.078826
v 0.671211 1.647917 0.055253
v 0.671211 1.647917 -2.055254
v 0.718619 1.695317 -1.921174
v -0.001579 0.962230 -0.100000
v 0.033780 0.997582 -0.000000
v -0.072276 1.103658 -0.100000
v -0.001579 0.962230 -1.900000
v -0.072276 1.103658 -1.900000
v 0.033780 0.997582 -2.000000
v 0.705594 1.669271 -0.100000
v 0.564179 1.739995 -0.100000
v 0.670235 1.633919 -0.000000
v 0.670235 1.633919 -2.000000
v 0.564179 1.739995 -1.900000
v 0.705594 1.669271 -1.900000
v -0.027627 0.949209 -0.078826
v 0.019782 0.996609 0.055253
v -0.098822 1.108812 -0.069743
v -0.027627 0.949209 -1.921174
v -0.098822 1.108812 -1.930257
v 0.019782 0.996609 -2.055254
v 0.718619 1.695317 -0.078826
v 0.559030 1.766542 -0.069743
v 0.671211 1.647917 0.055253
v 0.671211 1.647917 -2.055254
v 0.559030 1.766542 -1.930257
v 0.718619 1.695317 -1.921174
v 0.050000 0.000000 0.000000
v 0.000000 0.000000 -0.100000
v 0.050000 0.950000 0.000000
v 0.000000 0.950000 -0.100000
v 0.000000 0.000000 -1.900000
v 0.050000 0.000000 -2.000000
v 0.050000 0.950000 -2.000000
v 0.000000 0.950000 -1.900000
v 1.000000 0.000000 -0.100000
v 0.950000 0.000000 0.000000
v 0.950000 0.950000 0.000000
v 1.000000 0.950000 -0.100000
v 0.950000 0.000000 -2.000000
v 1.000000 0.000000 -1.900000
v 1.000000 0.950000 -1.900000
v 0.950000 0.950000 -2.000000
v -0.028627 0.950000 -0.076284
v 0.038142 0.950000 0.057255
v 0.038142 0.950000 -2.057255
v -0.028627 0.950000 -1.923716
v 0.961858 0.950000 0.057255
v 1.028627 0.950000 -0.076284
v 1.028627 0.950000 -1.923716
v 0.961858 0.950000 -2.057255
v -0.022226 -0.019529 -0.081588
v 0.040794 -0.019529 0.044451
v 0.040794 -0.019529 -2.044451
v -0.022226 -0.019529 -1.918412
v 1.022226 -0.019529 -1.918412
v 0.959206 -0.019529 -2.044451
v 0.959206 -0.019529 0.044451
v 1.022226 -0.019529 -0.081588
vt 0.631991 0.387537
vt 0.604985 0.415583
vt 0.631991 0.387537
vt 0.925140 0.406375
vt 0.927945 0.671673
vt 0.925140 0.406375
vt 0.640219 0.716974
vt 0.911075 0.703858
vt 0.640219 0.716974
vt 0.938081 0.398755
vt 0.902848 0.374421
vt 0.938081 0.398755
vt 0.927945 0.671673
vt 0.906554 0.694140
vt 0.636512 0.397255
vt 0.899618 0.385527
vt 0.636512 0.397255
vt 0.643449 0.705867
vt 0.617926 0.685019
vt 0.643449 0.705867
vt 0.938081 0.675811
vt 0.938081 0.675811
vt 0.911075 0.703858
vt 0.617926 0.685019
vt 0.615121 0.419722
vt 0.902848 0.374421
vt 0.604985 0.692639
vt 0.604985 0.692639
vt 0.615121 0.419722
vt 0.906554 0.694140
vt 0.899618 0.385527
vt 0.604985 0.415583
vt 0.650620 0.431830
vt 0.892446 0.659565
vt 0.655612 0.668634
vt 0.887455 0.422760
vt 0.908422 0.055738
vt 0.650112 0.303706
vt 0.652838 0.048320
vt 0.918409 0.355299
vt 0.905696 0.311125
vt 0.950931 0.328071
vt 0.922601 0.013861
vt 0.950930 0.043055
vt 0.635933 0.345583
vt 0.607603 0.316389
vt 0.607603 0.031373
vt 0.640125 0.004145
vt 0.545333 0.708525
vt 0.311138 0.486657
vt 0.545333 0.486657
vt 0.545333 0.469225
vt 0.311138 0.247357
vt 0.545333 0.247357
vt 0.545333 0.229925
vt 0.311138 0.008057
vt 0.545333 0.008057
vt 0.545333 0.725957
vt 0.311138 0.708525
vt 0.311138 0.947826
vt 0.545333 0.965257
vt 0.311138 0.965257
vt 0.311138 0.469225
vt 0.545333 0.947826
vt 0.311138 0.725957
vt 0.966940 0.975781
vt 0.732745 0.988107
vt 0.720419 0.975781
vt 0.954614 0.741586
vt 0.720419 0.753912
vt 0.732745 0.741586
vt 0.966940 0.753913
vt 0.035175 0.501673
vt 0.273603 0.276332
vt 0.273272 0.501738
vt 0.036128 0.750067
vt 0.273052 0.523705
vt 0.273572 0.748841
vt 0.038033 0.998244
vt 0.273621 0.770757
vt 0.275453 0.995660
vt 0.035935 0.275230
vt 0.273568 0.254407
vt 0.037462 0.004442
vt 0.275216 0.029577
vt 0.037984 0.027234
vt 0.036258 0.772166
vt 0.035293 0.523893
vt 0.036221 0.253114
vt 0.029011 0.772065
vt 0.030905 0.995362
vt 0.028929 0.253352
vt 0.028643 0.275040
vt 0.030929 0.027489
vt 0.029904 0.008062
vt 0.027628 0.501996
vt 0.027938 0.523816
vt 0.028853 0.750415
vt 0.311138 0.229925
vt 0.954614 0.988107
vt 0.275453 0.007695
vn 0.0000 0.0000 1.0000
vn 0.5181 -0.8473 -0.1163
vn 0.6974 -0.6976 0.1644
vn 0.8472 -0.5183 0.1163
vn 0.8944 -0.4473 0.0000
vn 0.6974 -0.6976 -0.1644
vn 0.4471 -0.8945 0.0000
vn 0.5181 -0.8473 0.1163
vn 0.8472 -0.5183 -0.1163
vn 0.7070 -0.7072 0.0000
vn 0.8082 0.4040 -0.4286
vn 0.8082 0.4040 0.4286
vn -0.4041 -0.8081 -0.4286
vn -0.4041 -0.8081 0.4286
vn 0.8945 0.4471 0.0000
vn 0.3922 -0.3923 0.8321
vn -0.4473 -0.8944 0.0000
vn 0.3922 -0.3923 -0.8321
vn -0.7070 0.7072 0.0000
vn -0.8169 -0.3886 0.4262
vn -0.8169 -0.3886 -0.4262
vn 0.3888 0.8168 0.4262
vn 0.3888 0.8168 -0.4262
vn -0.9133 -0.4074 0.0000
vn -0.4299 0.4300 -0.7939
vn 0.4076 0.9132 0.0000
vn -0.4299 0.4300 0.7939
vn 0.0000 0.0000 -1.0000
vn -1.0000 0.0000 0.0000
vn 0.8944 0.0000 -0.4472
vn 0.8944 0.0000 0.4472
vn -0.8944 0.0000 0.4472
vn -0.8944 0.0000 -0.4472
vn 1.0000 0.0000 0.0000
vn 0.0000 1.0000 0.0000
vn 0.0000 -0.0132 0.9999
vn 1.0000 -0.0066 0.0000
vn 0.0000 -0.0132 -0.9999
vn -0.8944 -0.0084 0.4472
vn -0.8944 -0.0084 -0.4472
vn 0.8944 -0.0084 -0.4472
vn 0.8944 -0.0084 0.4472
vn -1.0000 -0.0066 0.0000
vn 0.6974 -0.6975 -0.1644
s off
f 14/1/1 35/2/1 37/3/1
f 2/4/1 20/5/1 17/6/1
f 15/7/1 34/8/1 38/9/1
f 9/10/1 30/11/1 29/12/1
f 4/13/1 22/14/1 20/5/1
f 5/15/1 18/16/1 25/17/1
f 8/18/1 28/19/1 26/20/1
f 11/21/1 29/12/1 32/22/1
f 12/23/1 32/22/1 34/8/1
f 7/24/1 23/25/1 28/19/1
f 10/26/1 37/3/1 30/11/1
f 16/27/1 38/9/1 40/28/1
f 6/29/1 25/17/1 23/25/1
f 3/30/1 26/20/1 22/14/1
f 1/31/1 17/6/1 18/16/1
f 13/32/1 40/28/1 35/2/1
f 3/30/2 11/21/2 12/23/2
f 5/15/3 10/26/3 1/31/3
f 6/29/4 14/1/4 5/15/4
f 6/29/5 16/27/5 13/32/5
f 8/18/6 12/23/6 15/7/6
f 2/4/7 11/21/7 4/13/7
f 1/31/8 9/10/8 2/4/8
f 8/18/9 16/27/9 7/24/9
f 24/33/10 21/34/10 27/35/10
f 18/16/11 17/6/11 19/36/11
f 21/34/12 20/5/12 22/14/12
f 24/33/13 23/25/13 25/17/13
f 27/35/14 26/20/14 28/19/14
f 17/6/15 21/34/15 19/36/15
f 21/34/16 26/20/16 27/35/16
f 28/19/17 24/33/17 27/35/17
f 25/17/18 19/36/18 24/33/18
f 33/37/19 36/38/19 39/39/19
f 30/40/20 31/41/20 29/42/20
f 33/37/21 34/43/21 32/44/21
f 36/38/22 37/45/22 35/46/22
f 39/39/23 40/47/23 38/48/23
f 33/37/24 29/42/24 31/41/24
f 39/39/25 34/43/25 33/37/25
f 36/38/26 40/47/26 39/39/26
f 36/38/27 30/40/27 37/45/27
f 41/49/28 51/50/28 50/51/28
f 49/52/29 55/53/29 54/54/29
f 53/55/1 47/56/1 46/57/1
f 42/58/30 43/59/30 41/49/30
f 48/60/31 46/61/31 47/62/31
f 55/53/32 53/55/32 54/54/32
f 52/63/33 50/51/33 51/50/33
f 45/64/34 44/65/34 42/58/34
f 54/66/35 46/67/35 45/68/35
f 50/69/35 42/70/35 41/71/35
f 49/72/35 45/68/35 42/70/35
f 61/73/36 66/74/36 71/75/36
f 63/76/37 72/77/37 69/78/37
f 59/79/38 70/80/38 67/81/38
f 58/82/39 65/83/39 66/74/39
f 59/84/40 68/85/40 60/86/40
f 69/78/41 64/87/41 63/76/41
f 71/75/42 62/88/42 61/73/42
f 57/89/43 68/85/43 65/83/43
f 56/90/35 59/79/35 47/91/35
f 44/92/35 58/82/35 43/93/35
f 48/94/35 57/89/35 44/92/35
f 56/90/35 63/76/35 64/87/35
f 47/95/35 60/86/35 48/94/35
f 43/93/35 61/73/35 51/96/35
f 52/97/35 63/76/35 55/98/35
f 51/96/35 62/88/35 52/97/35
f 14/1/1 13/32/1 35/2/1
f 2/4/1 4/13/1 20/5/1
f 15/7/1 12/23/1 34/8/1
f 9/10/1 10/26/1 30/11/1
f 4/13/1 3/30/1 22/14/1
f 5/15/1 1/31/1 18/16/1
f 8/18/1 7/24/1 28/19/1
f 11/21/1 9/10/1 29/12/1
f 12/23/1 11/21/1 32/22/1
f 7/24/1 6/29/1 23/25/1
f 10/26/1 14/1/1 37/3/1
f 16/27/1 15/7/1 38/9/1
f 6/29/1 5/15/1 25/17/1
f 3/30/1 8/18/1 26/20/1
f 1/31/1 2/4/1 17/6/1
f 13/32/1 16/27/1 40/28/1
f 3/30/2 4/13/2 11/21/2
f 5/15/3 14/1/3 10/26/3
f 6/29/4 13/32/4 14/1/4
f 6/29/5 7/24/5 16/27/5
f 8/18/44 3/30/44 12/23/44
f 2/4/7 9/10/7 11/21/7
f 1/31/8 10/26/8 9/10/8
f 8/18/9 15/7/9 16/27/9
f 24/33/10 19/36/10 21/34/10
f 17/6/15 20/5/15 21/34/15
f 21/34/16 22/14/16 26/20/16
f 28/19/17 23/25/17 24/33/17
f 25/17/18 18/16/18 19/36/18
f 33/37/19 31/41/19 36/38/19
f 33/37/24 32/44/24 29/42/24
f 39/39/25 38/48/25 34/43/25
f 36/38/26 35/46/26 40/47/26
f 36/38/27 31/41/27 30/40/27
f 41/49/28 43/59/28 51/50/28
f 49/52/29 52/63/29 55/53/29
f 53/55/1 56/99/1 47/56/1
f 42/58/30 44/65/30 43/59/30
f 48/60/31 45/64/31 46/61/31
f 55/53/32 56/99/32 53/55/32
f 52/63/33 49/52/33 50/51/33
f 45/64/34 48/60/34 44/65/34
f 54/66/35 53/100/35 46/67/35
f 50/69/35 49/72/35 42/70/35
f 49/72/35 54/66/35 45/68/35
f 61/73/36 58/82/36 66/74/36
f 63/76/37 62/88/37 72/77/37
f 59/79/38 64/87/38 70/80/38
f 58/82/39 57/89/39 65/83/39
f 59/84/40 67/101/40 68/85/40
f 69/78/41 70/80/41 64/87/41
f 71/75/42 72/77/42 62/88/42
f 57/89/43 60/86/43 68/85/43
f 56/90/35 64/87/35 59/79/35
f 44/92/35 57/89/35 58/82/35
f 48/94/35 60/86/35 57/89/35
f 56/90/35 55/98/35 63/76/35
f 47/95/35 59/84/35 60/86/35
f 43/93/35 58/82/35 61/73/35
f 52/97/35 62/88/35 63/76/35
f 51/96/35 61/73/35 62/88/35
