# Blender v2.80 (sub 75) OBJ File: 'crosshairShotgun.blend'
# www.blender.org
o Torus.005
v 6.120000 0.000000 0.000000
v 6.000000 -0.000000 0.120000
v 5.880000 -0.000000 0.000000
v 6.000000 0.000000 -0.120000
v 6.027023 1.062727 0.000000
v 5.908846 1.041889 0.120000
v 5.790669 1.021051 0.000000
v 5.908846 1.041889 -0.120000
v 5.750919 2.093163 0.000000
v 5.638156 2.052120 0.120000
v 5.525393 2.011078 0.000000
v 5.638156 2.052120 -0.120000
v 5.300075 3.060001 0.000000
v 5.196152 3.000001 0.120000
v 5.092229 2.940001 0.000000
v 5.196152 3.000001 -0.120000
v 4.688191 3.933861 0.000001
v 4.596266 3.856726 0.120001
v 4.504341 3.779592 0.000001
v 4.596266 3.856726 -0.119999
v 3.933860 4.688192 0.000001
v 3.856725 4.596267 0.120001
v 3.779591 4.504342 0.000001
v 3.856725 4.596267 -0.119999
v 3.060000 5.300076 0.000001
v 3.000000 5.196153 0.120001
v 2.940000 5.092230 0.000001
v 3.000000 5.196153 -0.119999
v 2.093163 5.750919 0.000001
v 2.052121 5.638156 0.120001
v 2.011079 5.525393 0.000001
v 2.052121 5.638156 -0.119999
v 1.062727 6.027023 0.000001
v 1.041889 5.908846 0.120001
v 1.021052 5.790669 0.000001
v 1.041889 5.908846 -0.119999
v 0.000000 6.120000 0.000001
v 0.000000 6.000000 0.120001
v 0.000000 5.880000 0.000001
v 0.000000 6.000000 -0.119999
v -1.062726 6.027024 0.000001
v -1.041888 5.908847 0.120001
v -1.021051 5.790670 0.000001
v -1.041888 5.908847 -0.119999
v -2.093162 5.750919 0.000001
v -2.052120 5.638156 0.120001
v -2.011078 5.525393 0.000001
v -2.052120 5.638156 -0.119999
v -3.059999 5.300076 0.000001
v -2.999999 5.196153 0.120001
v -2.939999 5.092230 0.000001
v -2.999999 5.196153 -0.119999
v -3.933859 4.688192 0.000001
v -3.856725 4.596267 0.120001
v -3.779590 4.504342 0.000001
v -3.856725 4.596267 -0.119999
v -4.688191 3.933861 0.000001
v -4.596266 3.856727 0.120001
v -4.504340 3.779593 0.000001
v -4.596266 3.856727 -0.119999
v -5.300075 3.060001 0.000000
v -5.196152 3.000001 0.120000
v -5.092229 2.940001 0.000000
v -5.196152 3.000001 -0.120000
v -5.750918 2.093165 0.000000
v -5.638155 2.052123 0.120000
v -5.525392 2.011080 0.000000
v -5.638155 2.052123 -0.120000
v -6.027023 1.062729 0.000000
v -5.908846 1.041891 0.120000
v -5.790669 1.021053 0.000000
v -5.908846 1.041891 -0.120000
v -6.120000 0.000001 0.000000
v -6.000000 0.000001 0.120000
v -5.880000 0.000001 0.000000
v -6.000000 0.000001 -0.120000
v -6.027024 -1.062726 -0.000000
v -5.908847 -1.041888 0.120000
v -5.790670 -1.021051 -0.000000
v -5.908847 -1.041888 -0.120000
v -5.750919 -2.093162 -0.000000
v -5.638156 -2.052120 0.120000
v -5.525393 -2.011078 -0.000000
v -5.638156 -2.052120 -0.120000
v -5.300076 -3.059999 -0.000000
v -5.196153 -2.999999 0.120000
v -5.092230 -2.939999 -0.000000
v -5.196153 -2.999999 -0.120000
v -4.688193 -3.933859 -0.000001
v -4.596268 -3.856725 0.119999
v -4.504343 -3.779590 -0.000001
v -4.596268 -3.856725 -0.120001
v -3.933859 -4.688192 -0.000001
v -3.856725 -4.596267 0.119999
v -3.779590 -4.504342 -0.000001
v -3.856725 -4.596267 -0.120001
v -3.059999 -5.300076 -0.000001
v -2.999999 -5.196153 0.119999
v -2.939999 -5.092230 -0.000001
v -2.999999 -5.196153 -0.120001
v -2.093162 -5.750919 -0.000001
v -2.052120 -5.638156 0.119999
v -2.011078 -5.525393 -0.000001
v -2.052120 -5.638156 -0.120001
v -1.062726 -6.027024 -0.000001
v -1.041888 -5.908847 0.119999
v -1.021051 -5.790670 -0.000001
v -1.041888 -5.908847 -0.120001
v 0.000000 -6.120000 -0.000001
v 0.000000 -6.000000 0.119999
v 0.000000 -5.880000 -0.000001
v 0.000000 -6.000000 -0.120001
v 1.062727 -6.027023 -0.000001
v 1.041889 -5.908846 0.119999
v 1.021052 -5.790669 -0.000001
v 1.041889 -5.908846 -0.120001
v 2.093163 -5.750919 -0.000001
v 2.052121 -5.638156 0.119999
v 2.011079 -5.525393 -0.000001
v 2.052121 -5.638156 -0.120001
v 3.060000 -5.300076 -0.000001
v 3.000000 -5.196153 0.119999
v 2.940000 -5.092230 -0.000001
v 3.000000 -5.196153 -0.120001
v 3.933860 -4.688192 -0.000001
v 3.856725 -4.596267 0.119999
v 3.779591 -4.504342 -0.000001
v 3.856725 -4.596267 -0.120001
v 4.688191 -3.933861 -0.000001
v 4.596266 -3.856726 0.119999
v 4.504341 -3.779592 -0.000001
v 4.596266 -3.856726 -0.120001
v 5.300075 -3.060001 -0.000000
v 5.196152 -3.000001 0.120000
v 5.092229 -2.940001 -0.000000
v 5.196152 -3.000001 -0.120000
v 5.750918 -2.093164 -0.000000
v 5.638155 -2.052122 0.120000
v 5.525393 -2.011079 -0.000000
v 5.638155 -2.052122 -0.120000
v 6.027023 -1.062728 -0.000000
v 5.908846 -1.041890 0.120000
v 5.790669 -1.021052 -0.000000
v 5.908846 -1.041890 -0.120000
vt 0.527778 0.500000
vt 0.500000 0.750000
vt 0.500000 0.500000
vt 0.527778 0.750000
vt 0.500000 1.000000
vt 0.500000 0.000000
vt 0.527778 0.250000
vt 0.500000 0.250000
vt 0.555556 0.500000
vt 0.555556 0.750000
vt 0.527778 1.000000
vt 0.555556 0.000000
vt 0.527778 0.000000
vt 0.583333 0.500000
vt 0.583333 0.750000
vt 0.555556 1.000000
vt 0.583333 0.250000
vt 0.555556 0.250000
vt 0.611111 0.500000
vt 0.611111 0.750000
vt 0.583333 1.000000
vt 0.611111 0.000000
vt 0.583333 0.000000
vt 0.638889 0.750000
vt 0.638889 1.000000
vt 0.611111 1.000000
vt 0.638889 0.000000
vt 0.611111 0.250000
vt 0.638889 0.250000
vt 0.638889 0.500000
vt 0.666667 0.750000
vt 0.666667 0.250000
vt 0.666667 0.500000
vt 0.694444 0.750000
vt 0.666667 1.000000
vt 0.666667 0.000000
vt 0.694444 0.250000
vt 0.722222 0.500000
vt 0.694444 0.500000
vt 0.722222 1.000000
vt 0.694444 1.000000
vt 0.694444 0.000000
vt 0.722222 0.250000
vt 0.750000 0.500000
vt 0.722222 0.750000
vt 0.750000 0.750000
vt 0.750000 0.000000
vt 0.722222 0.000000
vt 0.750000 0.250000
vt 0.777778 0.500000
vt 0.777778 0.750000
vt 0.750000 1.000000
vt 0.777778 0.000000
vt 0.805556 0.500000
vt 0.805556 0.750000
vt 0.777778 1.000000
vt 0.805556 0.000000
vt 0.777778 0.250000
vt 0.833333 0.500000
vt 0.833333 0.750000
vt 0.805556 1.000000
vt 0.833333 0.250000
vt 0.805556 0.250000
vt 0.861111 0.500000
vt 0.861111 0.750000
vt 0.833333 1.000000
vt 0.861111 0.000000
vt 0.833333 0.000000
vt 0.861111 0.250000
vt 0.888889 0.750000
vt 0.888889 1.000000
vt 0.861111 1.000000
vt 0.888889 0.000000
vt 0.888889 0.250000
vt 0.916667 0.500000
vt 0.888889 0.500000
vt 0.916667 1.000000
vt 0.916667 0.000000
vt 0.916667 0.250000
vt 0.944444 0.500000
vt 0.916667 0.750000
vt 0.944444 1.000000
vt 0.944444 0.000000
vt 0.972222 0.500000
vt 0.944444 0.750000
vt 0.972222 1.000000
vt 0.972222 0.250000
vt 0.944444 0.250000
vt 1.000000 0.500000
vt 0.972222 0.750000
vt 1.000000 0.750000
vt 1.000000 0.000000
vt 0.972222 0.000000
vt 1.000000 0.250000
vt 0.027778 0.500000
vt 0.000000 0.750000
vt 0.000000 0.500000
vt 0.027778 0.750000
vt 0.000000 1.000000
vt 0.027778 0.000000
vt 0.000000 0.250000
vt 0.000000 0.000000
vt 0.027778 0.250000
vt 0.055556 0.500000
vt 0.055556 0.750000
vt 0.027778 1.000000
vt 0.055556 0.250000
vt 0.083333 0.500000
vt 0.083333 0.750000
vt 0.055556 1.000000
vt 0.055556 0.000000
vt 0.083333 0.250000
vt 0.111111 0.500000
vt 0.111111 0.750000
vt 0.083333 1.000000
vt 0.083333 0.000000
vt 0.111111 0.250000
vt 0.138889 0.750000
vt 0.111111 1.000000
vt 0.111111 0.000000
vt 0.138889 0.250000
vt 0.166667 0.500000
vt 0.138889 0.500000
vt 0.166667 0.750000
vt 0.138889 1.000000
vt 0.166667 0.000000
vt 0.138889 0.000000
vt 0.166667 0.250000
vt 0.194444 0.500000
vt 0.194444 0.750000
vt 0.166667 1.000000
vt 0.194444 0.000000
vt 0.222222 0.750000
vt 0.194444 1.000000
vt 0.222222 0.000000
vt 0.194444 0.250000
vt 0.222222 0.250000
vt 0.250000 0.500000
vt 0.222222 0.500000
vt 0.250000 0.750000
vt 0.222222 1.000000
vt 0.250000 0.250000
vt 0.277778 0.750000
vt 0.250000 1.000000
vt 0.277778 0.000000
vt 0.250000 0.000000
vt 0.277778 0.250000
vt 0.277778 0.500000
vt 0.305556 0.750000
vt 0.277778 1.000000
vt 0.305556 0.250000
vt 0.333333 0.500000
vt 0.305556 0.500000
vt 0.333333 0.750000
vt 0.305556 1.000000
vt 0.333333 0.000000
vt 0.305556 0.000000
vt 0.361111 0.500000
vt 0.361111 0.750000
vt 0.333333 1.000000
vt 0.361111 0.000000
vt 0.333333 0.250000
vt 0.361111 0.250000
vt 0.388889 0.500000
vt 0.388889 0.750000
vt 0.361111 1.000000
vt 0.388889 0.250000
vt 0.416667 0.750000
vt 0.416667 1.000000
vt 0.388889 1.000000
vt 0.416667 0.000000
vt 0.388889 0.000000
vt 0.416667 0.250000
vt 0.416667 0.500000
vt 0.444444 0.750000
vt 0.444444 0.000000
vt 0.444444 0.250000
vt 0.472222 0.500000
vt 0.444444 0.500000
vt 0.472222 0.750000
vt 0.444444 1.000000
vt 0.472222 0.000000
vt 0.472222 0.250000
vt 0.472222 1.000000
vt 1.000000 1.000000
vn 0.7058 0.0617 0.7058
vn -0.7058 -0.0617 0.7058
vn -0.7058 -0.0617 -0.7058
vn 0.7058 0.0617 -0.7058
vn 0.6843 0.1834 0.7058
vn -0.6843 -0.1834 0.7058
vn -0.6843 -0.1834 -0.7058
vn 0.6843 0.1834 -0.7058
vn 0.6421 0.2994 0.7058
vn -0.6421 -0.2994 0.7058
vn -0.6421 -0.2994 -0.7058
vn 0.6421 0.2994 -0.7058
vn 0.5803 0.4064 0.7058
vn -0.5803 -0.4064 0.7058
vn -0.5803 -0.4064 -0.7058
vn 0.5803 0.4064 -0.7058
vn 0.5010 0.5010 0.7058
vn -0.5010 -0.5010 0.7058
vn -0.5010 -0.5010 -0.7058
vn 0.5010 0.5010 -0.7058
vn 0.4064 0.5803 0.7058
vn -0.4064 -0.5803 0.7058
vn -0.4064 -0.5803 -0.7058
vn 0.4064 0.5803 -0.7058
vn 0.2994 0.6421 0.7058
vn -0.2994 -0.6421 0.7058
vn -0.2994 -0.6421 -0.7058
vn 0.2994 0.6421 -0.7058
vn 0.1834 0.6843 0.7058
vn -0.1834 -0.6843 0.7058
vn -0.1834 -0.6843 -0.7058
vn 0.1834 0.6843 -0.7058
vn 0.0617 0.7058 0.7058
vn -0.0617 -0.7058 0.7058
vn -0.0617 -0.7058 -0.7058
vn 0.0617 0.7058 -0.7058
vn -0.0617 0.7058 0.7058
vn 0.0617 -0.7058 0.7058
vn 0.0617 -0.7058 -0.7058
vn -0.0617 0.7058 -0.7058
vn -0.1834 0.6843 0.7058
vn 0.1834 -0.6843 0.7058
vn 0.1834 -0.6843 -0.7058
vn -0.1834 0.6843 -0.7058
vn -0.2994 0.6421 0.7058
vn 0.2994 -0.6421 0.7058
vn 0.2994 -0.6421 -0.7058
vn -0.2994 0.6421 -0.7058
vn -0.4064 0.5803 0.7058
vn 0.4064 -0.5803 0.7058
vn 0.4064 -0.5803 -0.7058
vn -0.4064 0.5803 -0.7058
vn -0.5010 0.5010 0.7058
vn 0.5010 -0.5010 0.7058
vn 0.5010 -0.5010 -0.7058
vn -0.5010 0.5010 -0.7058
vn -0.5803 0.4064 0.7058
vn 0.5803 -0.4064 0.7058
vn 0.5803 -0.4064 -0.7058
vn -0.5803 0.4064 -0.7058
vn -0.6421 0.2994 0.7058
vn 0.6421 -0.2994 0.7058
vn 0.6421 -0.2994 -0.7058
vn -0.6421 0.2994 -0.7058
vn -0.6843 0.1834 0.7058
vn 0.6843 -0.1834 0.7058
vn 0.6843 -0.1834 -0.7058
vn -0.6843 0.1834 -0.7058
vn -0.7058 0.0617 0.7058
vn 0.7058 -0.0617 0.7058
vn 0.7058 -0.0617 -0.7058
vn -0.7058 0.0617 -0.7058
s off
f 5/1/1 2/2/1 1/3/1
f 6/4/2 3/5/2 2/2/2
f 3/6/3 8/7/3 4/8/3
f 4/8/4 5/1/4 1/3/4
f 9/9/5 6/4/5 5/1/5
f 10/10/6 7/11/6 6/4/6
f 11/12/7 8/7/7 7/13/7
f 8/7/8 9/9/8 5/1/8
f 13/14/9 10/10/9 9/9/9
f 14/15/10 11/16/10 10/10/10
f 11/12/11 16/17/11 12/18/11
f 12/18/12 13/14/12 9/9/12
f 17/19/13 14/15/13 13/14/13
f 18/20/14 15/21/14 14/15/14
f 19/22/15 16/17/15 15/23/15
f 16/17/16 17/19/16 13/14/16
f 17/19/17 22/24/17 18/20/17
f 18/20/18 23/25/18 19/26/18
f 23/27/19 20/28/19 19/22/19
f 24/29/20 17/19/20 20/28/20
f 21/30/21 26/31/21 22/24/21
f 26/31/22 23/25/22 22/24/22
f 23/27/23 28/32/23 24/29/23
f 28/32/24 21/30/24 24/29/24
f 25/33/25 30/34/25 26/31/25
f 30/34/26 27/35/26 26/31/26
f 27/36/27 32/37/27 28/32/27
f 32/37/28 25/33/28 28/32/28
f 33/38/29 30/34/29 29/39/29
f 30/34/30 35/40/30 31/41/30
f 31/42/31 36/43/31 32/37/31
f 32/37/32 33/38/32 29/39/32
f 37/44/33 34/45/33 33/38/33
f 38/46/34 35/40/34 34/45/34
f 39/47/35 36/43/35 35/48/35
f 40/49/36 33/38/36 36/43/36
f 41/50/37 38/46/37 37/44/37
f 42/51/38 39/52/38 38/46/38
f 43/53/39 40/49/39 39/47/39
f 40/49/40 41/50/40 37/44/40
f 45/54/41 42/51/41 41/50/41
f 46/55/42 43/56/42 42/51/42
f 47/57/43 44/58/43 43/53/43
f 44/58/44 45/54/44 41/50/44
f 49/59/45 46/55/45 45/54/45
f 50/60/46 47/61/46 46/55/46
f 47/57/47 52/62/47 48/63/47
f 52/62/48 45/54/48 48/63/48
f 53/64/49 50/60/49 49/59/49
f 54/65/50 51/66/50 50/60/50
f 55/67/51 52/62/51 51/68/51
f 56/69/52 49/59/52 52/62/52
f 53/64/53 58/70/53 54/65/53
f 54/65/54 59/71/54 55/72/54
f 59/73/55 56/69/55 55/67/55
f 60/74/56 53/64/56 56/69/56
f 61/75/57 58/70/57 57/76/57
f 58/70/58 63/77/58 59/71/58
f 63/78/59 60/74/59 59/73/59
f 64/79/60 57/76/60 60/74/60
f 65/80/61 62/81/61 61/75/61
f 62/81/62 67/82/62 63/77/62
f 67/83/63 64/79/63 63/78/63
f 64/79/64 65/80/64 61/75/64
f 69/84/65 66/85/65 65/80/65
f 66/85/66 71/86/66 67/82/66
f 67/83/67 72/87/67 68/88/67
f 68/88/68 69/84/68 65/80/68
f 73/89/69 70/90/69 69/84/69
f 74/91/70 71/86/70 70/90/70
f 75/92/71 72/87/71 71/93/71
f 76/94/72 69/84/72 72/87/72
f 77/95/2 74/96/2 73/97/2
f 78/98/1 75/99/1 74/96/1
f 79/100/4 76/101/4 75/102/4
f 80/103/3 73/97/3 76/101/3
f 81/104/6 78/98/6 77/95/6
f 82/105/5 79/106/5 78/98/5
f 79/100/8 84/107/8 80/103/8
f 80/103/7 81/104/7 77/95/7
f 85/108/10 82/105/10 81/104/10
f 86/109/9 83/110/9 82/105/9
f 83/111/12 88/112/12 84/107/12
f 88/112/11 81/104/11 84/107/11
f 89/113/14 86/109/14 85/108/14
f 90/114/13 87/115/13 86/109/13
f 87/116/16 92/117/16 88/112/16
f 92/117/15 85/108/15 88/112/15
f 89/113/18 94/118/18 90/114/18
f 94/118/17 91/119/17 90/114/17
f 91/120/20 96/121/20 92/117/20
f 96/121/19 89/113/19 92/117/19
f 97/122/22 94/118/22 93/123/22
f 98/124/21 95/125/21 94/118/21
f 99/126/24 96/121/24 95/127/24
f 100/128/23 93/123/23 96/121/23
f 101/129/26 98/124/26 97/122/26
f 102/130/25 99/131/25 98/124/25
f 103/132/28 100/128/28 99/126/28
f 100/128/27 101/129/27 97/122/27
f 101/129/30 106/133/30 102/130/30
f 106/133/29 103/134/29 102/130/29
f 107/135/32 104/136/32 103/132/32
f 108/137/31 101/129/31 104/136/31
f 109/138/34 106/133/34 105/139/34
f 110/140/33 107/141/33 106/133/33
f 107/135/36 112/142/36 108/137/36
f 112/142/35 105/139/35 108/137/35
f 109/138/38 114/143/38 110/140/38
f 114/143/37 111/144/37 110/140/37
f 115/145/40 112/142/40 111/146/40
f 116/147/39 109/138/39 112/142/39
f 113/148/42 118/149/42 114/143/42
f 118/149/41 115/150/41 114/143/41
f 115/145/44 120/151/44 116/147/44
f 120/151/43 113/148/43 116/147/43
f 121/152/46 118/149/46 117/153/46
f 122/154/45 119/155/45 118/149/45
f 123/156/48 120/151/48 119/157/48
f 120/151/47 121/152/47 117/153/47
f 125/158/50 122/154/50 121/152/50
f 126/159/49 123/160/49 122/154/49
f 127/161/52 124/162/52 123/156/52
f 128/163/51 121/152/51 124/162/51
f 129/164/54 126/159/54 125/158/54
f 130/165/53 127/166/53 126/159/53
f 127/161/56 132/167/56 128/163/56
f 128/163/55 129/164/55 125/158/55
f 129/164/58 134/168/58 130/165/58
f 130/165/57 135/169/57 131/170/57
f 135/171/60 132/167/60 131/172/60
f 136/173/59 129/164/59 132/167/59
f 133/174/62 138/175/62 134/168/62
f 138/175/61 135/169/61 134/168/61
f 139/176/64 136/173/64 135/171/64
f 140/177/63 133/174/63 136/173/63
f 141/178/66 138/175/66 137/179/66
f 142/180/65 139/181/65 138/175/65
f 143/182/68 140/177/68 139/176/68
f 144/183/67 137/179/67 140/177/67
f 1/3/70 142/180/70 141/178/70
f 2/2/69 143/184/69 142/180/69
f 3/6/72 144/183/72 143/182/72
f 4/8/71 141/178/71 144/183/71
f 5/1/1 6/4/1 2/2/1
f 6/4/2 7/11/2 3/5/2
f 3/6/3 7/13/3 8/7/3
f 4/8/4 8/7/4 5/1/4
f 9/9/5 10/10/5 6/4/5
f 10/10/6 11/16/6 7/11/6
f 11/12/7 12/18/7 8/7/7
f 8/7/8 12/18/8 9/9/8
f 13/14/9 14/15/9 10/10/9
f 14/15/10 15/21/10 11/16/10
f 11/12/11 15/23/11 16/17/11
f 12/18/12 16/17/12 13/14/12
f 17/19/13 18/20/13 14/15/13
f 18/20/14 19/26/14 15/21/14
f 19/22/15 20/28/15 16/17/15
f 16/17/16 20/28/16 17/19/16
f 17/19/17 21/30/17 22/24/17
f 18/20/18 22/24/18 23/25/18
f 23/27/19 24/29/19 20/28/19
f 24/29/20 21/30/20 17/19/20
f 21/30/21 25/33/21 26/31/21
f 26/31/22 27/35/22 23/25/22
f 23/27/23 27/36/23 28/32/23
f 28/32/24 25/33/24 21/30/24
f 25/33/25 29/39/25 30/34/25
f 30/34/26 31/41/26 27/35/26
f 27/36/27 31/42/27 32/37/27
f 32/37/28 29/39/28 25/33/28
f 33/38/29 34/45/29 30/34/29
f 30/34/30 34/45/30 35/40/30
f 31/42/31 35/48/31 36/43/31
f 32/37/32 36/43/32 33/38/32
f 37/44/33 38/46/33 34/45/33
f 38/46/34 39/52/34 35/40/34
f 39/47/35 40/49/35 36/43/35
f 40/49/36 37/44/36 33/38/36
f 41/50/37 42/51/37 38/46/37
f 42/51/38 43/56/38 39/52/38
f 43/53/39 44/58/39 40/49/39
f 40/49/40 44/58/40 41/50/40
f 45/54/41 46/55/41 42/51/41
f 46/55/42 47/61/42 43/56/42
f 47/57/43 48/63/43 44/58/43
f 44/58/44 48/63/44 45/54/44
f 49/59/45 50/60/45 46/55/45
f 50/60/46 51/66/46 47/61/46
f 47/57/47 51/68/47 52/62/47
f 52/62/48 49/59/48 45/54/48
f 53/64/49 54/65/49 50/60/49
f 54/65/50 55/72/50 51/66/50
f 55/67/51 56/69/51 52/62/51
f 56/69/52 53/64/52 49/59/52
f 53/64/53 57/76/53 58/70/53
f 54/65/54 58/70/54 59/71/54
f 59/73/55 60/74/55 56/69/55
f 60/74/56 57/76/56 53/64/56
f 61/75/57 62/81/57 58/70/57
f 58/70/58 62/81/58 63/77/58
f 63/78/59 64/79/59 60/74/59
f 64/79/60 61/75/60 57/76/60
f 65/80/61 66/85/61 62/81/61
f 62/81/62 66/85/62 67/82/62
f 67/83/63 68/88/63 64/79/63
f 64/79/64 68/88/64 65/80/64
f 69/84/65 70/90/65 66/85/65
f 66/85/66 70/90/66 71/86/66
f 67/83/67 71/93/67 72/87/67
f 68/88/68 72/87/68 69/84/68
f 73/89/69 74/91/69 70/90/69
f 74/91/70 75/185/70 71/86/70
f 75/92/71 76/94/71 72/87/71
f 76/94/72 73/89/72 69/84/72
f 77/95/2 78/98/2 74/96/2
f 78/98/1 79/106/1 75/99/1
f 79/100/4 80/103/4 76/101/4
f 80/103/3 77/95/3 73/97/3
f 81/104/6 82/105/6 78/98/6
f 82/105/5 83/110/5 79/106/5
f 79/100/8 83/111/8 84/107/8
f 80/103/7 84/107/7 81/104/7
f 85/108/10 86/109/10 82/105/10
f 86/109/9 87/115/9 83/110/9
f 83/111/12 87/116/12 88/112/12
f 88/112/11 85/108/11 81/104/11
f 89/113/14 90/114/14 86/109/14
f 90/114/13 91/119/13 87/115/13
f 87/116/16 91/120/16 92/117/16
f 92/117/15 89/113/15 85/108/15
f 89/113/18 93/123/18 94/118/18
f 94/118/17 95/125/17 91/119/17
f 91/120/20 95/127/20 96/121/20
f 96/121/19 93/123/19 89/113/19
f 97/122/22 98/124/22 94/118/22
f 98/124/21 99/131/21 95/125/21
f 99/126/24 100/128/24 96/121/24
f 100/128/23 97/122/23 93/123/23
f 101/129/26 102/130/26 98/124/26
f 102/130/25 103/134/25 99/131/25
f 103/132/28 104/136/28 100/128/28
f 100/128/27 104/136/27 101/129/27
f 101/129/30 105/139/30 106/133/30
f 106/133/29 107/141/29 103/134/29
f 107/135/32 108/137/32 104/136/32
f 108/137/31 105/139/31 101/129/31
f 109/138/34 110/140/34 106/133/34
f 110/140/33 111/144/33 107/141/33
f 107/135/36 111/146/36 112/142/36
f 112/142/35 109/138/35 105/139/35
f 109/138/38 113/148/38 114/143/38
f 114/143/37 115/150/37 111/144/37
f 115/145/40 116/147/40 112/142/40
f 116/147/39 113/148/39 109/138/39
f 113/148/42 117/153/42 118/149/42
f 118/149/41 119/155/41 115/150/41
f 115/145/44 119/157/44 120/151/44
f 120/151/43 117/153/43 113/148/43
f 121/152/46 122/154/46 118/149/46
f 122/154/45 123/160/45 119/155/45
f 123/156/48 124/162/48 120/151/48
f 120/151/47 124/162/47 121/152/47
f 125/158/50 126/159/50 122/154/50
f 126/159/49 127/166/49 123/160/49
f 127/161/52 128/163/52 124/162/52
f 128/163/51 125/158/51 121/152/51
f 129/164/54 130/165/54 126/159/54
f 130/165/53 131/170/53 127/166/53
f 127/161/56 131/172/56 132/167/56
f 128/163/55 132/167/55 129/164/55
f 129/164/58 133/174/58 134/168/58
f 130/165/57 134/168/57 135/169/57
f 135/171/60 136/173/60 132/167/60
f 136/173/59 133/174/59 129/164/59
f 133/174/62 137/179/62 138/175/62
f 138/175/61 139/181/61 135/169/61
f 139/176/64 140/177/64 136/173/64
f 140/177/63 137/179/63 133/174/63
f 141/178/66 142/180/66 138/175/66
f 142/180/65 143/184/65 139/181/65
f 143/182/68 144/183/68 140/177/68
f 144/183/67 141/178/67 137/179/67
f 1/3/70 2/2/70 142/180/70
f 2/2/69 3/5/69 143/184/69
f 3/6/72 4/8/72 144/183/72
f 4/8/71 1/3/71 141/178/71
