# Blender v2.81 (sub 16) OBJ File: 'lootChest-closed.blend'
# www.blender.org
o Cube.003
v -0.669066 0.725000 -0.810000
v -0.122316 0.725000 0.810000
v -0.122316 0.725000 -0.810000
v -0.733191 0.500000 0.900000
v -0.058191 0.500000 0.900000
v -0.669066 0.725000 0.810000
v -0.733191 0.500000 -0.900000
v -0.058191 0.500000 -0.900000
v -1.353851 0.725000 -0.810000
v -0.807101 0.725000 0.810000
v -0.807101 0.725000 -0.810000
v -1.417976 0.500000 0.900000
v -0.742976 0.500000 0.900000
v -1.353851 0.725000 0.810000
v -1.417976 0.500000 -0.900000
v -0.742976 0.500000 -0.900000
v 0.004683 0.725000 -0.810000
v 0.551433 0.725000 0.810000
v 0.551433 0.725000 -0.810000
v -0.059442 0.500000 0.900000
v 0.615558 0.500000 0.900000
v 0.004683 0.725000 0.810000
v -0.059442 0.500000 -0.900000
v 0.615558 0.500000 -0.900000
v 1.080112 1.031724 -0.963704
v 0.107993 1.031724 0.442824
v 1.406865 1.031725 -0.525334
v -0.329243 0.806724 0.006827
v 0.074156 0.806724 0.548024
v -0.218761 1.031724 0.004454
v 1.113949 0.806725 -1.068904
v 1.517348 0.806725 -0.527707
v 0.127322 1.188730 -0.646723
v -1.427848 1.068187 0.053455
v 0.169431 1.283612 -0.109918
v -1.530320 0.730652 -0.501039
v -1.478334 0.847790 0.161684
v -1.469957 0.973305 -0.483350
v 0.244435 0.970013 -0.682564
v 0.296421 1.087151 -0.019841
v 0.832561 0.725000 -0.810000
v 1.379311 0.725000 0.810000
v 1.379311 0.725000 -0.810000
v 0.768436 0.500000 0.900000
v 1.443436 0.500000 0.900000
v 0.832561 0.725000 0.810000
v 0.768436 0.500000 -0.900000
v 1.443436 0.500000 -0.900000
v -0.222729 1.500945 0.642960
v 1.355456 1.017096 0.197359
v -0.190427 1.491042 0.097255
v 1.339297 0.786713 0.812628
v 1.379175 0.774487 0.138918
v 1.323155 1.026999 0.743065
v -0.378351 1.313320 0.701401
v -0.338473 1.301093 0.027691
vt 0.625000 0.000000
vt 0.375000 0.250000
vt 0.375000 0.000000
vt 0.625000 0.250000
vt 0.375000 0.500000
vt 0.375000 0.250000
vt 0.625000 0.500000
vt 0.375000 0.750000
vt 0.625000 0.750000
vt 0.375000 1.000000
vt 0.375000 0.500000
vt 0.125000 0.750000
vt 0.125000 0.500000
vt 0.875000 0.500000
vt 0.625000 0.500000
vt 0.625000 0.250000
vt 0.625000 0.750000
vt 0.625000 1.000000
vt 0.375000 0.750000
vt 0.875000 0.750000
vt 0.625000 0.000000
vt 0.375000 0.250000
vt 0.375000 0.000000
vt 0.625000 0.250000
vt 0.375000 0.500000
vt 0.375000 0.250000
vt 0.625000 0.500000
vt 0.375000 0.750000
vt 0.625000 0.750000
vt 0.375000 1.000000
vt 0.375000 0.500000
vt 0.125000 0.750000
vt 0.125000 0.500000
vt 0.875000 0.500000
vt 0.625000 0.500000
vt 0.625000 0.250000
vt 0.625000 0.750000
vt 0.625000 1.000000
vt 0.375000 0.750000
vt 0.875000 0.750000
vt 0.625000 0.000000
vt 0.375000 0.250000
vt 0.375000 0.000000
vt 0.625000 0.250000
vt 0.375000 0.500000
vt 0.375000 0.250000
vt 0.625000 0.500000
vt 0.375000 0.750000
vt 0.625000 0.750000
vt 0.375000 1.000000
vt 0.375000 0.500000
vt 0.125000 0.750000
vt 0.125000 0.500000
vt 0.875000 0.500000
vt 0.625000 0.500000
vt 0.625000 0.250000
vt 0.625000 0.750000
vt 0.625000 1.000000
vt 0.375000 0.750000
vt 0.875000 0.750000
vt 0.625000 0.000000
vt 0.375000 0.250000
vt 0.375000 0.000000
vt 0.625000 0.250000
vt 0.375000 0.500000
vt 0.375000 0.250000
vt 0.625000 0.500000
vt 0.375000 0.750000
vt 0.625000 0.750000
vt 0.375000 1.000000
vt 0.375000 0.500000
vt 0.125000 0.750000
vt 0.125000 0.500000
vt 0.875000 0.500000
vt 0.625000 0.500000
vt 0.625000 0.250000
vt 0.625000 0.750000
vt 0.625000 1.000000
vt 0.375000 0.750000
vt 0.875000 0.750000
vt 0.625000 0.000000
vt 0.375000 0.250000
vt 0.375000 0.000000
vt 0.625000 0.250000
vt 0.375000 0.500000
vt 0.375000 0.250000
vt 0.625000 0.500000
vt 0.375000 0.750000
vt 0.625000 0.750000
vt 0.375000 1.000000
vt 0.375000 0.500000
vt 0.125000 0.750000
vt 0.125000 0.500000
vt 0.875000 0.500000
vt 0.625000 0.500000
vt 0.625000 0.250000
vt 0.625000 0.750000
vt 0.625000 1.000000
vt 0.375000 0.750000
vt 0.875000 0.750000
vt 0.625000 0.000000
vt 0.375000 0.250000
vt 0.375000 0.000000
vt 0.625000 0.250000
vt 0.375000 0.500000
vt 0.375000 0.250000
vt 0.625000 0.500000
vt 0.375000 0.750000
vt 0.625000 0.750000
vt 0.375000 1.000000
vt 0.375000 0.500000
vt 0.125000 0.750000
vt 0.125000 0.500000
vt 0.875000 0.500000
vt 0.625000 0.500000
vt 0.625000 0.250000
vt 0.625000 0.750000
vt 0.625000 1.000000
vt 0.375000 0.750000
vt 0.875000 0.750000
vt 0.625000 0.000000
vt 0.375000 0.250000
vt 0.375000 0.000000
vt 0.625000 0.250000
vt 0.375000 0.500000
vt 0.375000 0.250000
vt 0.625000 0.500000
vt 0.375000 0.750000
vt 0.625000 0.750000
vt 0.375000 1.000000
vt 0.375000 0.500000
vt 0.125000 0.750000
vt 0.125000 0.500000
vt 0.875000 0.500000
vt 0.625000 0.500000
vt 0.625000 0.250000
vt 0.625000 0.750000
vt 0.625000 1.000000
vt 0.375000 0.750000
vt 0.875000 0.750000
vn 0.0000 1.0000 0.0000
vn 0.0000 0.3714 0.9285
vn -0.9617 0.2741 0.0000
vn 0.0000 -1.0000 -0.0000
vn 0.9617 0.2741 0.0000
vn 0.0000 0.3714 -0.9285
vn -0.7444 0.3714 0.5549
vn -0.5747 0.2741 -0.7711
vn 0.5747 0.2741 0.7711
vn 0.7444 0.3714 -0.5549
vn -0.1481 0.9758 -0.1609
vn -0.9704 0.2389 0.0339
vn -0.1146 0.1006 -0.9883
vn 0.1481 -0.9758 0.1609
vn 0.0335 0.4343 0.9001
vn 0.8605 0.4859 -0.1534
vn 0.2931 0.9561 -0.0000
vn 0.9949 0.0834 0.0574
vn 0.0235 0.2795 0.9599
vn -0.2931 -0.9561 0.0000
vn 0.1372 0.2446 -0.9599
vn -0.7771 0.6267 -0.0574
s 1
f 1/1/1 2/2/1 3/3/1
f 2/4/2 4/5/2 5/6/2
f 6/7/3 7/8/3 4/5/3
f 8/9/4 4/10/4 7/8/4
f 3/11/5 5/12/5 8/13/5
f 1/14/6 8/9/6 7/15/6
f 1/1/1 6/16/1 2/2/1
f 2/4/2 6/7/2 4/5/2
f 6/7/3 1/17/3 7/8/3
f 8/9/4 5/18/4 4/10/4
f 3/11/5 2/19/5 5/12/5
f 1/14/6 3/20/6 8/9/6
f 9/21/1 10/22/1 11/23/1
f 10/24/2 12/25/2 13/26/2
f 14/27/3 15/28/3 12/25/3
f 16/29/4 12/30/4 15/28/4
f 11/31/5 13/32/5 16/33/5
f 9/34/6 16/29/6 15/35/6
f 9/21/1 14/36/1 10/22/1
f 10/24/2 14/27/2 12/25/2
f 14/27/3 9/37/3 15/28/3
f 16/29/4 13/38/4 12/30/4
f 11/31/5 10/39/5 13/32/5
f 9/34/6 11/40/6 16/29/6
f 17/41/1 18/42/1 19/43/1
f 18/44/2 20/45/2 21/46/2
f 22/47/3 23/48/3 20/45/3
f 24/49/4 20/50/4 23/48/4
f 19/51/5 21/52/5 24/53/5
f 17/54/6 24/49/6 23/55/6
f 17/41/1 22/56/1 18/42/1
f 18/44/2 22/47/2 20/45/2
f 22/47/3 17/57/3 23/48/3
f 24/49/4 21/58/4 20/50/4
f 19/51/5 18/59/5 21/52/5
f 17/54/6 19/60/6 24/49/6
f 25/61/1 26/62/1 27/63/1
f 26/64/7 28/65/7 29/66/7
f 30/67/8 31/68/8 28/65/8
f 32/69/4 28/70/4 31/68/4
f 27/71/9 29/72/9 32/73/9
f 25/74/10 32/69/10 31/75/10
f 25/61/1 30/76/1 26/62/1
f 26/64/7 30/67/7 28/65/7
f 30/67/8 25/77/8 31/68/8
f 32/69/4 29/78/4 28/70/4
f 27/71/9 26/79/9 29/72/9
f 25/74/10 27/80/10 32/69/10
f 33/81/11 34/82/11 35/83/11
f 34/84/12 36/85/12 37/86/12
f 38/87/13 39/88/13 36/85/13
f 40/89/14 36/90/14 39/88/14
f 35/91/15 37/92/15 40/93/15
f 33/94/16 40/89/16 39/95/16
f 33/81/11 38/96/11 34/82/11
f 34/84/12 38/87/12 36/85/12
f 38/87/13 33/97/13 39/88/13
f 40/89/14 37/98/14 36/90/14
f 35/91/15 34/99/15 37/92/15
f 33/94/16 35/100/16 40/89/16
f 41/101/1 42/102/1 43/103/1
f 42/104/2 44/105/2 45/106/2
f 46/107/3 47/108/3 44/105/3
f 48/109/4 44/110/4 47/108/4
f 43/111/5 45/112/5 48/113/5
f 41/114/6 48/109/6 47/115/6
f 41/101/1 46/116/1 42/102/1
f 42/104/2 46/107/2 44/105/2
f 46/107/3 41/117/3 47/108/3
f 48/109/4 45/118/4 44/110/4
f 43/111/5 42/119/5 45/112/5
f 41/114/6 43/120/6 48/109/6
f 49/121/17 50/122/17 51/123/17
f 50/124/18 52/125/18 53/126/18
f 54/127/19 55/128/19 52/125/19
f 56/129/20 52/130/20 55/128/20
f 51/131/21 53/132/21 56/133/21
f 49/134/22 56/129/22 55/135/22
f 49/121/17 54/136/17 50/122/17
f 50/124/18 54/127/18 52/125/18
f 54/127/19 49/137/19 55/128/19
f 56/129/20 53/138/20 52/130/20
f 51/131/21 50/139/21 53/132/21
f 49/134/22 51/140/22 56/129/22
