# Blender v2.81 (sub 16) OBJ File: 'lootChest-closed.blend'
# www.blender.org
o High_Cube.002
v -1.354700 0.050000 0.874000
v -1.426000 1.500000 0.920000
v -1.354700 0.050000 -0.874000
v -1.426000 1.500000 -0.920000
v 1.354700 0.050000 0.874000
v 1.426000 1.500000 0.920000
v 1.354700 0.050000 -0.874000
v 1.426000 1.500000 -0.920000
v 1.276167 0.050000 -0.950000
v -1.276167 0.050000 -0.950000
v -1.343333 1.500000 -1.000000
v 1.343333 1.500000 -1.000000
v -1.276167 0.050000 0.950000
v 1.276167 0.050000 0.950000
v 1.343333 1.500000 1.000000
v -1.343333 1.500000 1.000000
v -1.472500 0.050000 -0.760000
v -1.472500 0.050000 0.760000
v -1.550000 1.500000 0.800000
v -1.550000 1.500000 -0.800000
v 1.472500 0.050000 0.760000
v 1.472500 0.050000 -0.760000
v 1.550000 1.500000 -0.800000
v 1.550000 1.500000 0.800000
v 1.343333 2.000000 -0.800000
v 1.343333 2.000000 0.800000
v -1.343333 2.000000 -0.800000
v -1.343333 2.000000 0.800000
v -1.343333 0.000000 -0.800000
v -1.343333 0.000000 0.800000
v 1.343333 0.000000 -0.800000
v 1.343333 0.000000 0.800000
v 0.850778 0.050000 -0.950000
v -0.850778 0.050000 -0.950000
v -0.895555 1.500000 -1.000000
v 0.895555 1.500000 -1.000000
v -0.850778 0.050000 0.950000
v 0.850778 0.050000 0.950000
v 0.895555 1.500000 1.000000
v -0.895555 1.500000 1.000000
v 0.895555 0.000000 -0.800000
v -0.895555 0.000000 -0.800000
v 0.895555 0.000000 0.800000
v -0.895555 0.000000 0.800000
v -0.895555 2.000000 -0.800000
v 0.895555 2.000000 -0.800000
v -0.895555 2.000000 0.800000
v 0.895555 2.000000 0.800000
v -1.426000 1.166159 0.920000
v -1.426000 1.166159 -0.920000
v 1.426000 1.166159 -0.920000
v 1.426000 1.166159 0.920000
v 1.343333 1.166159 1.000000
v -1.343333 1.166159 1.000000
v -1.343333 1.166159 -1.000000
v 1.343333 1.166159 -1.000000
v 1.550000 1.166159 -0.800000
v 1.550000 1.166159 0.800000
v -1.550000 1.166159 0.800000
v -1.550000 1.166159 -0.800000
v -0.895555 1.166159 -1.000000
v 0.895555 1.166159 -1.000000
v 0.895555 1.166159 1.000000
v -0.895555 1.166159 1.000000
v -1.426000 0.133712 -0.920000
v 1.426000 0.133712 -0.920000
v 1.426000 0.133712 0.920000
v 1.343333 0.133712 1.000000
v -1.343333 0.133712 1.000000
v -1.343333 0.133712 -1.000000
v 1.343333 0.133712 -1.000000
v 1.550000 0.133712 -0.800000
v 1.550000 0.133712 0.800000
v -1.550000 0.133712 0.800000
v -1.550000 0.133712 -0.800000
v -0.895555 0.133712 -1.000000
v 0.895555 0.133712 -1.000000
v 0.895555 0.133712 1.000000
v -0.895555 0.133712 1.000000
v -1.426000 0.133712 0.920000
v -1.426000 1.449924 0.920000
v -1.426000 1.449924 -0.920000
v 1.426000 1.449924 -0.920000
v 1.426000 1.449924 0.920000
v 1.343333 1.449924 1.000000
v -1.343333 1.449924 1.000000
v -1.343333 1.449924 -1.000000
v 1.343333 1.449924 -1.000000
v 1.550000 1.449924 -0.800000
v 1.550000 1.449924 0.800000
v -1.550000 1.449924 0.800000
v -1.550000 1.449924 -0.800000
v -0.895555 1.449924 -1.000000
v 0.895555 1.449924 -1.000000
v 0.895555 1.449924 1.000000
v -0.895555 1.449924 1.000000
v 1.209000 2.050000 -0.720000
v 1.209000 2.050000 0.720000
v -1.209000 2.050000 -0.720000
v -1.209000 2.050000 0.720000
v -0.806000 2.050000 -0.720000
v 0.806000 2.050000 -0.720000
v -0.806000 2.050000 0.720000
v 0.806000 2.050000 0.720000
v -1.426000 1.500000 0.870000
v 1.426000 1.500000 0.870000
v 1.343333 1.500000 0.950000
v -1.343333 1.500000 0.950000
v -1.500000 1.500000 0.750000
v 1.500000 1.500000 0.750000
v 0.895555 1.500000 0.950000
v -0.895555 1.500000 0.950000
v -1.426000 1.449924 0.870000
v 1.426000 1.449924 0.870000
v 1.343333 1.449924 0.950000
v -1.343333 1.449924 0.950000
v 1.500000 1.449924 0.750000
v -1.500000 1.449924 0.750000
v 0.895555 1.449924 0.950000
v -0.895555 1.449924 0.950000
v 1.376000 1.500000 -0.920000
v 1.500000 1.500000 -0.800000
v -1.500000 1.449924 -0.800000
v 1.376000 1.449924 -0.920000
v 1.500000 1.449924 -0.800000
v -1.379983 1.449924 -0.920000
v -1.379983 1.500000 -0.920000
v -1.500000 1.500000 -0.800000
vt 0.260653 0.674789
vt 0.258886 0.680974
vt 0.255224 0.681764
vt 0.058201 0.500352
vt 0.050767 0.484469
vt 0.062615 0.495046
vt 0.992691 0.283557
vt 0.993463 0.270480
vt 0.999871 0.285048
vt 0.991199 0.064937
vt 0.998455 0.221176
vt 0.992014 0.220528
vt 0.356878 0.177030
vt 0.367033 0.169353
vt 0.378220 0.172064
vt 0.921195 0.022952
vt 0.989505 0.019814
vt 0.986803 0.032116
vt 0.922142 0.266299
vt 0.988744 0.265916
vt 0.919662 0.062673
vt 0.533157 0.332228
vt 0.539647 0.320710
vt 0.548307 0.339105
vt 0.383376 0.208413
vt 0.401240 0.196467
vt 0.992707 0.001936
vt 0.994041 0.015068
vt 0.463755 0.010639
vt 0.476113 0.017759
vt 0.477203 0.024298
vt 0.249530 0.663757
vt 0.088134 0.528756
vt 0.093050 0.523431
vt 0.200988 0.370829
vt 0.238143 0.371884
vt 0.228261 0.391141
vt 0.203753 0.348661
vt 0.370363 0.513614
vt 0.380507 0.505593
vt 0.389402 0.519150
vt 0.539871 0.345834
vt 0.394853 0.510531
vt 0.244583 0.668670
vt 0.161353 0.703114
vt 0.213336 0.641703
vt 0.777411 0.285307
vt 0.791267 0.495813
vt 0.777410 0.506892
vt 0.045512 0.491423
vt 0.000556 0.555572
vt 0.028338 0.480221
vt 0.715134 0.728735
vt 0.786799 0.507150
vt 0.786799 0.728735
vt 0.195121 0.732101
vt 0.705745 0.506892
vt 0.197043 0.359745
vt 0.197157 0.335069
vt 0.031529 0.478735
vt 0.045270 0.486342
vt 0.990860 0.256876
vt 0.985462 0.253536
vt 0.544218 0.649743
vt 0.695593 0.484874
vt 0.547714 0.652821
vt 0.175339 0.734365
vt 0.145286 0.707978
vt 0.907626 0.034378
vt 0.032134 0.586032
vt 0.353229 0.474306
vt 0.497922 0.309370
vt 0.358898 0.511084
vt 0.335164 0.486482
vt 0.218239 0.636168
vt 0.690697 0.197962
vt 0.680731 0.185892
vt 0.697963 0.193766
vt 0.673695 0.185973
vt 0.667885 0.178257
vt 0.535281 0.309593
vt 0.507432 0.289959
vt 0.919803 0.223440
vt 0.490275 0.083713
vt 0.517980 0.282347
vt 0.407284 0.185061
vt 0.460443 0.059666
vt 0.383684 0.161421
vt 0.244667 0.605520
vt 0.217462 0.398606
vt 0.329023 0.498139
vt 0.276213 0.630993
vt 0.353486 0.522063
vt 0.666121 0.449305
vt 0.401602 0.524168
vt 0.554253 0.350803
vt 0.649514 0.217673
vt 0.562703 0.330558
vt 0.551921 0.312746
vt 0.072119 0.231219
vt 0.335994 0.158397
vt 0.182869 0.330028
vt 0.082065 0.454825
vt 0.174924 0.349313
vt 0.184715 0.367115
vt 0.121135 0.494048
vt 0.190774 0.377614
vt 0.286660 0.638897
vt 0.364605 0.526739
vt 0.609051 0.182007
vt 0.545303 0.302393
vt 0.450712 0.051204
vt 0.372968 0.156639
vt 0.638946 0.208795
vt 0.436388 0.038593
vt 0.354864 0.148793
vt 0.091378 0.464555
vt 0.303398 0.650942
vt 0.383354 0.534269
vt 0.348493 0.163458
vt 0.189209 0.341485
vt 0.342625 0.172020
vt 0.514121 0.053809
vt 0.484552 0.034851
vt 0.696868 0.476378
vt 0.513471 0.622670
vt 0.664902 0.230901
vt 0.041680 0.204062
vt 0.225244 0.059589
vt 0.069777 0.440855
vt 0.634692 0.152928
vt 0.661279 0.180710
vt 0.278768 0.686076
vt 0.704034 0.031090
vt 0.906514 0.070462
vt 0.703446 0.067827
vt 0.701397 0.215703
vt 0.907237 0.253551
vt 0.701277 0.252890
vt 0.906398 0.215570
vt 0.701277 0.518230
vt 0.715134 0.507150
vt 0.000129 0.575169
vt 0.028820 0.602382
vt 0.471597 0.000129
vt 0.466441 0.003677
vt 0.672297 0.172326
vt 0.481118 0.013660
vt 0.485453 0.028368
vt 0.643489 0.143374
vt 0.639069 0.148204
vt 0.684158 0.179346
vt 0.489855 0.022919
vt 0.518228 0.048050
vt 0.522097 0.042655
vt 0.037621 0.471391
vt 0.038885 0.467966
vt 0.991927 0.028726
vt 0.998329 0.064262
vt 0.047011 0.485228
vt 0.032848 0.196183
vt 0.186559 0.034708
vt 0.038220 0.200975
vt 0.275354 0.687659
vt 0.260853 0.679689
vt 0.194805 0.032432
vt 0.791267 0.514076
vt 0.791267 0.728735
vt 0.701019 0.489652
vt 0.268664 0.694708
vt 0.267463 0.697944
vt 0.701277 0.292232
vt 0.705745 0.285307
vt 0.999871 0.000129
vt 0.791267 0.296386
vt 0.701277 0.717656
vt 0.701019 0.187228
vt 0.181187 0.029916
vt 0.553140 0.657598
vt 0.701278 0.506892
vn 0.0000 0.0000 1.0000
vn 0.6954 0.0000 -0.7186
vn 0.0000 -1.0000 0.0000
vn 0.4405 -0.7738 0.4552
vn -0.6684 0.2763 0.6906
vn 0.6684 0.2763 0.6906
vn 0.0000 0.3714 0.9285
vn -0.4405 -0.7738 0.4552
vn 0.0000 -0.9487 0.3162
vn 0.0000 1.0000 0.0000
vn -0.6954 0.0000 -0.7186
vn 0.0000 0.0000 -1.0000
vn 0.0000 -0.9487 -0.3162
vn -0.4405 -0.7738 -0.4552
vn -0.3610 -0.9326 0.0000
vn 0.0000 0.3714 -0.9285
vn -0.3488 0.9372 0.0000
vn 0.6684 0.2763 -0.6906
vn 0.9242 0.3820 0.0000
vn -0.6684 0.2763 -0.6906
vn -0.9242 0.3820 0.0000
vn 0.4405 -0.7738 -0.4552
vn 0.3610 -0.9326 0.0000
vn 0.0000 0.8480 -0.5300
vn 0.0000 0.8480 0.5300
vn -1.0000 0.0000 0.0000
vn -0.6954 0.0000 0.7186
vn 1.0000 0.0000 0.0000
vn 0.6954 0.0000 0.7186
vn -0.4949 -0.7025 -0.5114
vn 0.4949 -0.7025 -0.5114
vn 0.4949 -0.7025 0.5114
vn -0.4949 -0.7025 0.5114
vn 0.0000 -0.5128 0.8585
vn 0.0000 -0.5128 -0.8585
vn 0.7338 -0.6794 0.0000
vn -0.7338 -0.6794 0.0000
vn 0.3488 0.9372 0.0000
vn 0.8512 0.0000 0.5249
vn -0.8512 0.0000 0.5249
vn -0.7071 0.0000 -0.7072
s off
f 82/1/1 127/2/1 4/3/1
f 12/4/2 83/5/2 88/6/2
f 24/7/3 106/8/3 110/9/3
f 40/10/3 111/11/3 39/12/3
f 32/13/4 5/14/4 14/15/4
f 28/16/5 2/17/5 16/18/5
f 26/19/6 6/20/6 24/7/6
f 28/16/7 40/10/7 47/21/7
f 30/22/8 1/23/8 18/24/8
f 43/25/9 14/15/9 38/26/9
f 19/27/3 105/28/3 2/17/3
f 90/29/10 114/30/10 84/31/10
f 4/3/11 87/32/11 82/1/11
f 36/33/12 88/6/12 94/34/12
f 9/35/13 41/36/13 33/37/13
f 31/38/3 43/25/3 41/36/3
f 3/39/14 29/40/14 17/41/14
f 29/40/15 18/42/15 17/43/15
f 11/44/16 45/45/16 35/46/16
f 28/47/17 99/48/17 27/49/17
f 8/50/18 25/51/18 23/52/18
f 25/53/19 24/54/19 23/55/19
f 4/3/20 27/56/20 11/44/20
f 20/57/21 28/47/21 27/49/21
f 7/58/22 31/38/22 9/35/22
f 22/59/23 32/13/23 31/38/23
f 8/50/3 122/60/3 121/61/3
f 39/12/3 107/62/3 15/63/3
f 92/64/10 118/65/10 123/66/10
f 45/45/24 99/67/24 101/68/24
f 47/21/25 100/69/25 28/16/25
f 36/33/16 25/51/16 12/4/16
f 35/46/16 46/70/16 36/33/16
f 42/71/3 30/22/3 29/40/3
f 41/36/3 44/72/3 42/71/3
f 10/73/13 42/71/13 29/40/13
f 33/37/13 42/71/13 34/74/13
f 11/44/12 93/75/12 87/32/12
f 35/46/12 94/34/12 93/75/12
f 91/76/10 113/77/10 118/78/10
f 81/79/10 116/80/10 113/77/10
f 44/72/9 13/81/9 30/22/9
f 43/25/9 37/82/9 44/72/9
f 48/83/7 15/63/7 26/19/7
f 47/21/7 39/12/7 48/83/7
f 63/84/1 79/85/1 78/86/1
f 53/87/1 78/86/1 68/88/1
f 61/89/12 77/90/12 76/91/12
f 55/92/12 76/91/12 70/93/12
f 59/94/26 75/95/26 74/96/26
f 49/97/27 74/98/27 80/99/27
f 57/100/28 73/101/28 72/102/28
f 51/103/2 72/104/2 66/105/2
f 62/106/12 71/107/12 77/90/12
f 50/108/11 70/93/11 65/109/11
f 64/110/1 69/111/1 79/85/1
f 52/112/29 68/88/29 67/113/29
f 54/114/27 80/99/27 69/111/27
f 58/115/29 67/113/29 73/116/29
f 56/117/2 66/105/2 71/107/2
f 60/118/11 65/109/11 75/119/11
f 75/119/30 3/39/30 17/41/30
f 9/35/31 66/105/31 7/58/31
f 73/116/32 5/14/32 21/120/32
f 13/81/33 80/99/33 1/23/33
f 67/113/32 14/15/32 5/14/32
f 79/85/34 13/81/34 37/82/34
f 65/109/30 10/73/30 3/39/30
f 77/90/35 9/35/35 33/37/35
f 7/58/31 72/104/31 22/121/31
f 72/102/36 21/122/36 22/59/36
f 1/23/33 74/98/33 18/24/33
f 74/96/37 17/43/37 18/42/37
f 10/73/35 76/91/35 34/74/35
f 76/91/35 33/37/35 34/74/35
f 14/15/34 78/86/34 38/26/34
f 78/86/34 37/82/34 38/26/34
f 95/123/1 64/110/1 63/84/1
f 85/124/1 63/84/1 53/87/1
f 93/75/12 62/106/12 61/89/12
f 87/32/12 61/89/12 55/92/12
f 91/125/26 60/126/26 59/94/26
f 81/79/27 59/127/27 49/97/27
f 89/128/28 58/129/28 57/100/28
f 83/5/2 57/130/2 51/103/2
f 94/34/12 56/117/12 62/106/12
f 82/1/11 55/92/11 50/108/11
f 96/131/1 54/114/1 64/110/1
f 84/31/29 53/87/29 52/112/29
f 86/132/27 49/97/27 54/114/27
f 90/29/29 52/112/29 58/115/29
f 88/6/2 51/103/2 56/117/2
f 92/133/11 50/108/11 60/118/11
f 99/134/10 103/135/10 101/136/10
f 102/137/10 98/138/10 97/139/10
f 101/136/10 104/140/10 102/137/10
f 25/53/38 98/141/38 26/142/38
f 46/70/24 97/143/24 25/51/24
f 48/83/25 103/135/25 47/21/25
f 45/45/24 102/144/24 46/70/24
f 48/83/25 98/138/25 104/140/25
f 110/145/39 114/30/39 117/146/39
f 108/147/27 113/77/27 116/80/27
f 106/148/29 115/149/29 114/30/29
f 112/150/1 116/80/1 120/151/1
f 105/152/40 118/78/40 113/77/40
f 107/153/1 119/154/1 115/149/1
f 111/155/1 120/151/1 119/154/1
f 95/123/10 120/151/10 96/131/10
f 83/5/10 125/156/10 89/157/10
f 85/124/10 119/154/10 95/123/10
f 6/20/3 107/62/3 106/8/3
f 2/17/3 108/158/3 16/18/3
f 16/18/3 112/159/3 40/10/3
f 96/131/10 116/80/10 86/132/10
f 84/31/10 115/149/10 85/124/10
f 121/61/2 125/156/2 124/160/2
f 122/161/28 117/162/28 125/163/28
f 82/1/10 123/164/10 126/165/10
f 8/50/1 124/160/1 83/5/1
f 89/128/10 117/162/10 90/166/10
f 23/55/3 110/167/3 122/168/3
f 109/169/26 123/66/26 118/65/26
f 4/3/3 128/170/3 20/171/3
f 20/57/3 109/172/3 19/173/3
f 128/170/41 126/165/41 123/164/41
f 82/1/1 126/165/1 127/2/1
f 12/4/2 8/50/2 83/5/2
f 24/7/3 6/20/3 106/8/3
f 40/10/3 112/159/3 111/11/3
f 32/13/4 21/120/4 5/14/4
f 28/16/5 19/27/5 2/17/5
f 26/19/6 15/63/6 6/20/6
f 28/16/7 16/18/7 40/10/7
f 30/22/8 13/81/8 1/23/8
f 43/25/9 32/13/9 14/15/9
f 19/27/3 109/174/3 105/28/3
f 90/29/10 117/146/10 114/30/10
f 4/3/11 11/44/11 87/32/11
f 36/33/12 12/4/12 88/6/12
f 9/35/13 31/38/13 41/36/13
f 31/38/3 32/13/3 43/25/3
f 3/39/14 10/73/14 29/40/14
f 29/40/15 30/22/15 18/42/15
f 11/44/16 27/56/16 45/45/16
f 28/47/17 100/175/17 99/48/17
f 8/50/18 12/4/18 25/51/18
f 25/53/19 26/142/19 24/54/19
f 4/3/20 20/171/20 27/56/20
f 20/57/21 19/173/21 28/47/21
f 7/58/22 22/121/22 31/38/22
f 22/59/23 21/122/23 32/13/23
f 8/50/3 23/52/3 122/60/3
f 39/12/3 111/11/3 107/62/3
f 92/64/10 91/125/10 118/65/10
f 45/45/24 27/56/24 99/67/24
f 47/21/25 103/135/25 100/69/25
f 36/33/16 46/70/16 25/51/16
f 35/46/16 45/45/16 46/70/16
f 42/71/3 44/72/3 30/22/3
f 41/36/3 43/25/3 44/72/3
f 10/73/13 34/74/13 42/71/13
f 33/37/13 41/36/13 42/71/13
f 11/44/12 35/46/12 93/75/12
f 35/46/12 36/33/12 94/34/12
f 91/76/10 81/79/10 113/77/10
f 81/79/10 86/132/10 116/80/10
f 44/72/9 37/82/9 13/81/9
f 43/25/9 38/26/9 37/82/9
f 48/83/7 39/12/7 15/63/7
f 47/21/7 40/10/7 39/12/7
f 63/84/1 64/110/1 79/85/1
f 53/87/1 63/84/1 78/86/1
f 61/89/12 62/106/12 77/90/12
f 55/92/12 61/89/12 76/91/12
f 59/94/26 60/126/26 75/95/26
f 49/97/27 59/127/27 74/98/27
f 57/100/28 58/129/28 73/101/28
f 51/103/2 57/130/2 72/104/2
f 62/106/12 56/117/12 71/107/12
f 50/108/11 55/92/11 70/93/11
f 64/110/1 54/114/1 69/111/1
f 52/112/29 53/87/29 68/88/29
f 54/114/27 49/97/27 80/99/27
f 58/115/29 52/112/29 67/113/29
f 56/117/2 51/103/2 66/105/2
f 60/118/11 50/108/11 65/109/11
f 75/119/30 65/109/30 3/39/30
f 9/35/31 71/107/31 66/105/31
f 73/116/32 67/113/32 5/14/32
f 13/81/33 69/111/33 80/99/33
f 67/113/32 68/88/32 14/15/32
f 79/85/34 69/111/34 13/81/34
f 65/109/30 70/93/30 10/73/30
f 77/90/35 71/107/35 9/35/35
f 7/58/31 66/105/31 72/104/31
f 72/102/36 73/101/36 21/122/36
f 1/23/33 80/99/33 74/98/33
f 74/96/37 75/95/37 17/43/37
f 10/73/35 70/93/35 76/91/35
f 76/91/35 77/90/35 33/37/35
f 14/15/34 68/88/34 78/86/34
f 78/86/34 79/85/34 37/82/34
f 95/123/1 96/131/1 64/110/1
f 85/124/1 95/123/1 63/84/1
f 93/75/12 94/34/12 62/106/12
f 87/32/12 93/75/12 61/89/12
f 91/125/26 92/64/26 60/126/26
f 81/79/27 91/76/27 59/127/27
f 89/128/28 90/166/28 58/129/28
f 83/5/2 89/157/2 57/130/2
f 94/34/12 88/6/12 56/117/12
f 82/1/11 87/32/11 55/92/11
f 96/131/1 86/132/1 54/114/1
f 84/31/29 85/124/29 53/87/29
f 86/132/27 81/79/27 49/97/27
f 90/29/29 84/31/29 52/112/29
f 88/6/2 83/5/2 51/103/2
f 92/133/11 82/1/11 50/108/11
f 99/134/10 100/69/10 103/135/10
f 102/137/10 104/140/10 98/138/10
f 101/136/10 103/135/10 104/140/10
f 25/53/38 97/176/38 98/141/38
f 46/70/24 102/144/24 97/143/24
f 48/83/25 104/140/25 103/135/25
f 45/45/24 101/68/24 102/144/24
f 48/83/25 26/19/25 98/138/25
f 110/145/39 106/148/39 114/30/39
f 108/147/27 105/152/27 113/77/27
f 106/148/29 107/153/29 115/149/29
f 112/150/1 108/147/1 116/80/1
f 105/152/40 109/177/40 118/78/40
f 107/153/1 111/155/1 119/154/1
f 111/155/1 112/150/1 120/151/1
f 95/123/10 119/154/10 120/151/10
f 83/5/10 124/160/10 125/156/10
f 85/124/10 115/149/10 119/154/10
f 6/20/3 15/63/3 107/62/3
f 2/17/3 105/28/3 108/158/3
f 16/18/3 108/158/3 112/159/3
f 96/131/10 120/151/10 116/80/10
f 84/31/10 114/30/10 115/149/10
f 121/61/2 122/60/2 125/156/2
f 122/161/28 110/178/28 117/162/28
f 82/1/10 92/133/10 123/164/10
f 8/50/1 121/61/1 124/160/1
f 89/128/10 125/163/10 117/162/10
f 23/55/3 24/54/3 110/167/3
f 109/169/26 128/179/26 123/66/26
f 4/3/3 127/2/3 128/170/3
f 20/57/3 128/180/3 109/172/3
f 128/170/41 127/2/41 126/165/41
