# Blender v2.80 (sub 75) OBJ File: 'Tileset.blend'
# www.blender.org
o Shop_low.003_Cube.11599
v 0.440954 1.900000 0.350002
v 0.448935 1.950000 0.440002
v 0.438454 1.950000 0.350002
v 0.448935 2.850000 0.440002
v 0.440954 2.900000 0.350002
v 0.438454 2.850000 0.350002
v 0.440954 1.900000 -1.269997
v 0.438454 1.950000 -1.269997
v 0.448935 1.950000 -1.359998
v 0.440954 2.900000 -1.269997
v 0.448935 2.850000 -1.359998
v 0.438454 2.850000 -1.269997
v 0.485954 1.900000 0.350002
v 0.488454 1.950000 0.350002
v 0.493935 1.950000 0.440002
v 0.485954 2.900000 0.350002
v 0.493935 2.850000 0.440002
v 0.488454 2.850000 0.350002
v 0.485954 1.900000 -1.269997
v 0.493935 1.950000 -1.359998
v 0.488454 1.950000 -1.269997
v 0.485954 2.900000 -1.269997
v 0.488454 2.850000 -1.269997
v 0.493935 2.850000 -1.359998
v 0.428768 1.900000 -1.122725
v 0.418208 1.900000 -0.975452
v 0.409896 1.900000 -0.828179
v 0.404453 1.900000 -0.680907
v 0.402500 1.900000 -0.533634
v 0.402500 1.900000 -0.386361
v 0.404453 1.900000 -0.239089
v 0.409896 1.900000 -0.091816
v 0.418208 1.900000 0.055457
v 0.428768 1.900000 0.202730
v 0.426268 1.950000 0.202730
v 0.415708 1.950000 0.055457
v 0.407396 1.950000 -0.091816
v 0.401953 1.950000 -0.239088
v 0.400000 1.950000 -0.386361
v 0.400000 1.950000 -0.533634
v 0.401953 1.950000 -0.680907
v 0.407396 1.950000 -0.828179
v 0.415708 1.950000 -0.975452
v 0.426268 1.950000 -1.122725
v 0.428768 2.900000 0.202730
v 0.418208 2.900000 0.055457
v 0.409896 2.900000 -0.091816
v 0.404453 2.900000 -0.239088
v 0.402500 2.900000 -0.386361
v 0.402500 2.900000 -0.533634
v 0.404453 2.900000 -0.680907
v 0.409896 2.900000 -0.828179
v 0.418208 2.900000 -0.975452
v 0.428768 2.900000 -1.122725
v 0.426268 2.850000 -1.122725
v 0.415708 2.850000 -0.975452
v 0.407396 2.850000 -0.828179
v 0.401953 2.850000 -0.680907
v 0.400000 2.850000 -0.533634
v 0.400000 2.850000 -0.386361
v 0.401953 2.850000 -0.239089
v 0.407396 2.850000 -0.091816
v 0.415708 2.850000 0.055457
v 0.426268 2.850000 0.202730
v 0.473768 1.900000 0.202730
v 0.463208 1.900000 0.055457
v 0.454896 1.900000 -0.091816
v 0.449453 1.900000 -0.239088
v 0.447500 1.900000 -0.386361
v 0.447500 1.900000 -0.533634
v 0.449453 1.900000 -0.680907
v 0.454896 1.900000 -0.828179
v 0.463208 1.900000 -0.975452
v 0.473768 1.900000 -1.122725
v 0.476268 1.950000 -1.122725
v 0.465708 1.950000 -0.975452
v 0.457396 1.950000 -0.828179
v 0.451953 1.950000 -0.680907
v 0.450000 1.950000 -0.533634
v 0.450000 1.950000 -0.386361
v 0.451953 1.950000 -0.239089
v 0.457396 1.950000 -0.091816
v 0.465708 1.950000 0.055457
v 0.476268 1.950000 0.202730
v 0.473768 2.900000 -1.122725
v 0.463208 2.900000 -0.975452
v 0.454896 2.900000 -0.828179
v 0.449453 2.900000 -0.680907
v 0.447500 2.900000 -0.533634
v 0.447500 2.900000 -0.386361
v 0.449453 2.900000 -0.239089
v 0.454896 2.900000 -0.091816
v 0.463208 2.900000 0.055457
v 0.473768 2.900000 0.202730
v 0.476268 2.850000 0.202730
v 0.465708 2.850000 0.055457
v 0.457396 2.850000 -0.091816
v 0.451953 2.850000 -0.239088
v 0.450000 2.850000 -0.386361
v 0.450000 2.850000 -0.533634
v 0.451953 2.850000 -0.680907
v 0.457396 2.850000 -0.828179
v 0.465708 2.850000 -0.975452
v 0.476268 2.850000 -1.122725
vt 0.421598 0.024267
vt 0.118887 0.033345
vt 0.110179 0.016230
vt 0.592480 0.138029
vt 0.899610 0.062385
vt 0.899615 0.138029
vt 0.456872 0.152170
vt 0.429234 0.080150
vt 0.450132 0.071468
vt 0.416045 0.843828
vt 0.115521 0.924583
vt 0.110621 0.849569
vt 0.413076 0.959152
vt 0.110212 0.985063
vt 0.118935 0.967121
vt 0.099903 0.072852
vt 0.115672 0.075760
vt 0.412310 0.040916
vt 0.413636 0.082321
vt 0.099602 0.927562
vt 0.429944 0.919780
vt 0.414301 0.917640
vt 0.916720 0.062478
vt 0.899615 0.016230
vt 0.575375 0.062478
vt 0.592480 0.016230
vt 0.592484 0.062385
vt 0.916720 0.892818
vt 0.899615 0.939065
vt 0.899610 0.892911
vt 0.575375 0.892818
vt 0.592484 0.892911
vt 0.592480 0.939065
vt 0.092935 0.148972
vt 0.110822 0.150520
vt 0.433706 0.844691
vt 0.078491 0.937434
vt 0.450913 0.928431
vt 0.899615 0.817267
vt 0.916725 0.817169
vt 0.575369 0.138126
vt 0.078980 0.063114
vt 0.068863 0.145161
vt 0.068477 0.854902
vt 0.092655 0.851108
vt 0.065883 0.775195
vt 0.089814 0.772980
vt 0.064169 0.696656
vt 0.088014 0.695098
vt 0.062869 0.618013
vt 0.086786 0.617108
vt 0.062091 0.539203
vt 0.086085 0.538934
vt 0.086117 0.460665
vt 0.062131 0.460374
vt 0.086882 0.382536
vt 0.062986 0.381611
vt 0.088170 0.304638
vt 0.064360 0.303060
vt 0.090030 0.226894
vt 0.066153 0.224656
vt 0.592480 0.817267
vt 0.575369 0.817169
vt 0.592479 0.741685
vt 0.575370 0.741603
vt 0.592478 0.666177
vt 0.575370 0.666118
vt 0.592478 0.590737
vt 0.575369 0.590705
vt 0.592479 0.515342
vt 0.575371 0.439963
vt 0.575371 0.515333
vt 0.575369 0.364591
vt 0.592479 0.439954
vt 0.575370 0.289178
vt 0.592478 0.364559
vt 0.575370 0.213692
vt 0.592478 0.289119
vt 0.592479 0.213611
vt 0.916725 0.138127
vt 0.899616 0.213611
vt 0.916724 0.213692
vt 0.899616 0.289119
vt 0.916725 0.289178
vt 0.899617 0.364559
vt 0.916726 0.364591
vt 0.899615 0.439954
vt 0.916724 0.515333
vt 0.916724 0.439963
vt 0.916726 0.590704
vt 0.899615 0.515342
vt 0.916725 0.666117
vt 0.899617 0.590737
vt 0.916725 0.741603
vt 0.899616 0.666177
vt 0.899616 0.741685
vt 0.433143 0.155069
vt 0.433602 0.231625
vt 0.415519 0.155965
vt 0.433657 0.307995
vt 0.416165 0.231748
vt 0.433754 0.384520
vt 0.416317 0.308037
vt 0.433932 0.461272
vt 0.416391 0.384572
vt 0.433990 0.538156
vt 0.416490 0.461306
vt 0.416553 0.614915
vt 0.416544 0.538147
vt 0.433927 0.614941
vt 0.416592 0.691517
vt 0.433951 0.691532
vt 0.416560 0.767908
vt 0.434025 0.768001
vt 0.107587 0.772385
vt 0.105676 0.694728
vt 0.104460 0.616867
vt 0.103830 0.538849
vt 0.104541 0.382790
vt 0.103858 0.460763
vt 0.105807 0.305021
vt 0.107762 0.227505
vt 0.457486 0.847547
vt 0.457531 0.769513
vt 0.457360 0.692592
vt 0.457398 0.615544
vt 0.457531 0.538321
vt 0.457468 0.461071
vt 0.457209 0.383880
vt 0.457040 0.306897
vt 0.457071 0.230072
vt 0.422442 0.975822
vn 0.6314 0.4054 0.6610
vn -0.5672 -0.4031 0.7182
vn 0.6314 -0.4054 0.6610
vn 0.9967 0.0249 -0.0770
vn 0.9971 -0.0249 -0.0716
vn 0.9967 -0.0249 -0.0770
vn 0.6860 0.7257 -0.0529
vn -0.6289 0.7413 0.2346
vn 0.6439 0.7505 0.1487
vn -0.9967 0.0249 -0.0769
vn -0.9948 -0.0248 -0.0990
vn -0.9967 -0.0249 -0.0769
vn -0.5672 0.4031 -0.7182
vn 0.6314 -0.4054 -0.6610
vn -0.5672 -0.4031 -0.7182
vn -0.6289 -0.7413 0.2346
vn -0.9948 -0.0248 0.0990
vn -0.5672 0.4031 0.7182
vn -0.9948 0.0248 0.0990
vn -0.6289 -0.7413 -0.2346
vn -0.6289 0.7413 -0.2346
vn -0.9948 0.0248 -0.0990
vn 0.6439 -0.7505 0.1487
vn 0.9971 0.0249 -0.0716
vn 0.6439 -0.7505 -0.1487
vn 0.9971 -0.0249 0.0716
vn 0.6439 0.7505 -0.1487
vn 0.9971 0.0249 0.0716
vn 0.6314 0.4054 -0.6610
vn -0.6885 -0.7233 0.0532
vn -0.9967 -0.0249 0.0769
vn -0.6885 0.7233 -0.0532
vn 0.9967 -0.0249 0.0770
vn 0.6860 -0.7257 0.0529
vn 0.6860 -0.7257 -0.0529
vn -0.6885 -0.7233 -0.0532
vn 0.6861 -0.7262 0.0439
vn -0.6896 -0.7228 -0.0442
vn 0.6862 -0.7266 0.0320
vn -0.6907 -0.7224 -0.0323
vn 0.6862 -0.7271 0.0172
vn -0.6917 -0.7219 -0.0174
vn 0.6877 -0.7260 0.0045
vn -0.6907 -0.7231 -0.0046
vn -0.6907 -0.7231 0.0046
vn 0.6877 -0.7260 -0.0045
vn -0.6917 -0.7219 0.0174
vn 0.6862 -0.7271 -0.0172
vn -0.6907 -0.7224 0.0323
vn 0.6862 -0.7266 -0.0320
vn -0.6896 -0.7228 0.0442
vn 0.6861 -0.7262 -0.0439
vn 0.9967 0.0249 0.0770
vn 0.6860 0.7257 0.0529
vn 0.9976 0.0249 0.0639
vn 0.6861 0.7262 0.0439
vn 0.9986 0.0249 0.0466
vn 0.6862 0.7266 0.0320
vn 0.9994 0.0250 0.0251
vn 0.6862 0.7271 0.0172
vn 0.9997 0.0250 0.0066
vn 0.6877 0.7260 -0.0045
vn 0.6877 0.7260 0.0045
vn 0.6862 0.7271 -0.0172
vn 0.9997 0.0250 -0.0066
vn 0.6862 0.7266 -0.0320
vn 0.9994 0.0250 -0.0251
vn 0.6861 0.7262 -0.0439
vn 0.9986 0.0249 -0.0466
vn 0.9976 0.0249 -0.0639
vn 0.9976 -0.0249 -0.0639
vn 0.9986 -0.0249 -0.0466
vn 0.9994 -0.0250 -0.0251
vn 0.9997 -0.0250 -0.0066
vn 0.9997 -0.0250 0.0066
vn 0.9994 -0.0250 0.0251
vn 0.9986 -0.0249 0.0466
vn 0.9976 -0.0249 0.0639
vn -0.6885 0.7233 0.0532
vn -0.6896 0.7228 0.0442
vn -0.9967 0.0249 0.0769
vn -0.6907 0.7224 0.0323
vn -0.9976 0.0249 0.0639
vn -0.6917 0.7219 0.0174
vn -0.9986 0.0249 0.0466
vn -0.6907 0.7231 0.0046
vn -0.9994 0.0249 0.0251
vn -0.6907 0.7231 -0.0046
vn -0.9997 0.0250 0.0066
vn -0.9994 0.0249 -0.0251
vn -0.9997 0.0250 -0.0066
vn -0.6917 0.7219 -0.0174
vn -0.9986 0.0249 -0.0466
vn -0.6907 0.7224 -0.0323
vn -0.9976 0.0249 -0.0639
vn -0.6896 0.7228 -0.0442
vn -0.9976 -0.0249 -0.0639
vn -0.9986 -0.0249 -0.0466
vn -0.9994 -0.0250 -0.0251
vn -0.9997 -0.0250 -0.0066
vn -0.9994 -0.0249 0.0251
vn -0.9997 -0.0250 0.0066
vn -0.9986 -0.0249 0.0466
vn -0.9976 -0.0249 0.0639
s 1
f 17/1/1 2/2/2 15/3/3
f 95/4/4 14/5/5 84/6/6
f 94/7/7 5/8/8 16/9/9
f 55/10/10 8/11/11 44/12/12
f 11/13/13 20/14/14 9/15/15
f 1/16/16 2/2/2 3/17/17
f 4/18/18 5/8/8 6/19/19
f 7/20/20 8/11/11 9/15/15
f 10/21/21 11/13/13 12/22/22
f 13/23/23 14/5/5 15/24/3
f 16/25/9 17/26/1 18/27/24
f 19/28/25 20/29/14 21/30/26
f 22/31/27 23/32/28 24/33/29
f 34/34/30 3/17/17 35/35/31
f 4/18/18 3/17/17 2/2/2
f 54/36/32 12/22/22 55/10/10
f 9/15/15 12/22/22 11/13/13
f 19/37/25 9/15/15 20/14/14
f 22/38/27 11/13/13 10/21/21
f 21/30/26 24/33/29 23/32/28
f 19/28/25 75/39/33 74/40/34
f 16/25/9 95/4/4 94/41/7
f 15/24/3 18/27/24 17/26/1
f 13/42/23 2/2/2 1/16/16
f 16/9/9 4/18/18 17/1/1
f 65/43/35 1/16/16 34/34/30
f 7/20/20 74/44/34 25/45/36
f 25/45/36 73/46/37 26/47/38
f 26/47/38 72/48/39 27/49/40
f 27/49/40 71/50/41 28/51/42
f 28/51/42 70/52/43 29/53/44
f 70/52/43 30/54/45 29/53/44
f 69/55/46 31/56/47 30/54/45
f 68/57/48 32/58/49 31/56/47
f 67/59/50 33/60/51 32/58/49
f 66/61/52 34/34/30 33/60/51
f 22/31/27 104/62/53 23/32/28
f 85/63/54 103/64/55 104/62/53
f 86/65/56 102/66/57 103/64/55
f 87/67/58 101/68/59 102/66/57
f 88/69/60 100/70/61 101/68/59
f 90/71/62 100/70/61 89/72/63
f 91/73/64 99/74/65 90/71/62
f 92/75/66 98/76/67 91/73/64
f 93/77/68 97/78/69 92/75/66
f 94/41/7 96/79/70 93/77/68
f 13/23/23 84/6/6 14/5/5
f 65/80/35 83/81/71 84/6/6
f 66/82/52 82/83/72 83/81/71
f 67/84/50 81/85/73 82/83/72
f 68/86/48 80/87/74 81/85/73
f 70/88/43 80/87/74 69/89/46
f 71/90/41 79/91/75 70/88/43
f 72/92/39 78/93/76 71/90/41
f 73/94/37 77/95/77 72/92/39
f 74/40/34 76/96/78 73/94/37
f 45/97/79 6/19/19 5/8/8
f 46/98/80 64/99/81 45/97/79
f 47/100/82 63/101/83 46/98/80
f 48/102/84 62/103/85 47/100/82
f 49/104/86 61/105/87 48/102/84
f 50/106/88 60/107/89 49/104/86
f 50/106/88 58/108/90 59/109/91
f 51/110/92 57/111/93 58/108/90
f 52/112/94 56/113/95 57/111/93
f 53/114/96 55/10/10 56/113/95
f 25/45/36 8/11/11 7/20/20
f 26/47/38 44/12/12 25/45/36
f 27/49/40 43/115/97 26/47/38
f 28/51/42 42/116/98 27/49/40
f 29/53/44 41/117/99 28/51/42
f 30/54/45 40/118/100 29/53/44
f 30/54/45 38/119/101 39/120/102
f 31/56/47 37/121/103 38/119/101
f 32/58/49 36/122/104 37/121/103
f 33/60/51 35/35/31 36/122/104
f 6/19/19 35/35/31 3/17/17
f 64/99/81 36/122/104 35/35/31
f 63/101/83 37/121/103 36/122/104
f 62/103/85 38/119/101 37/121/103
f 61/105/87 39/120/102 38/119/101
f 60/107/89 40/118/100 39/120/102
f 59/109/91 41/117/99 40/118/100
f 58/108/90 42/116/98 41/117/99
f 42/116/98 56/113/95 43/115/97
f 56/113/95 44/12/12 43/115/97
f 10/21/21 85/123/54 22/38/27
f 54/36/32 86/124/56 85/123/54
f 53/114/96 87/125/58 86/124/56
f 52/112/94 88/126/60 87/125/58
f 51/110/92 89/127/63 88/126/60
f 50/106/88 90/128/62 89/127/63
f 90/128/62 48/102/84 91/129/64
f 91/129/64 47/100/82 92/130/66
f 92/130/66 46/98/80 93/131/68
f 93/131/68 45/97/79 94/7/7
f 23/32/28 75/39/33 21/30/26
f 104/62/53 76/96/78 75/39/33
f 103/64/55 77/95/77 76/96/78
f 102/66/57 78/93/76 77/95/77
f 101/68/59 79/91/75 78/93/76
f 100/70/61 80/87/74 79/91/75
f 99/74/65 81/85/73 80/87/74
f 98/76/67 82/83/72 81/85/73
f 97/78/69 83/81/71 82/83/72
f 96/79/70 84/6/6 83/81/71
f 17/1/1 4/18/18 2/2/2
f 95/4/4 18/27/24 14/5/5
f 94/7/7 45/97/79 5/8/8
f 55/10/10 12/22/22 8/11/11
f 11/13/13 24/132/29 20/14/14
f 34/34/30 1/16/16 3/17/17
f 4/18/18 6/19/19 3/17/17
f 54/36/32 10/21/21 12/22/22
f 9/15/15 8/11/11 12/22/22
f 19/37/25 7/20/20 9/15/15
f 22/38/27 24/132/29 11/13/13
f 21/30/26 20/29/14 24/33/29
f 19/28/25 21/30/26 75/39/33
f 16/25/9 18/27/24 95/4/4
f 15/24/3 14/5/5 18/27/24
f 13/42/23 15/3/3 2/2/2
f 16/9/9 5/8/8 4/18/18
f 65/43/35 13/42/23 1/16/16
f 7/20/20 19/37/25 74/44/34
f 25/45/36 74/44/34 73/46/37
f 26/47/38 73/46/37 72/48/39
f 27/49/40 72/48/39 71/50/41
f 28/51/42 71/50/41 70/52/43
f 70/52/43 69/55/46 30/54/45
f 69/55/46 68/57/48 31/56/47
f 68/57/48 67/59/50 32/58/49
f 67/59/50 66/61/52 33/60/51
f 66/61/52 65/43/35 34/34/30
f 22/31/27 85/63/54 104/62/53
f 85/63/54 86/65/56 103/64/55
f 86/65/56 87/67/58 102/66/57
f 87/67/58 88/69/60 101/68/59
f 88/69/60 89/72/63 100/70/61
f 90/71/62 99/74/65 100/70/61
f 91/73/64 98/76/67 99/74/65
f 92/75/66 97/78/69 98/76/67
f 93/77/68 96/79/70 97/78/69
f 94/41/7 95/4/4 96/79/70
f 13/23/23 65/80/35 84/6/6
f 65/80/35 66/82/52 83/81/71
f 66/82/52 67/84/50 82/83/72
f 67/84/50 68/86/48 81/85/73
f 68/86/48 69/89/46 80/87/74
f 70/88/43 79/91/75 80/87/74
f 71/90/41 78/93/76 79/91/75
f 72/92/39 77/95/77 78/93/76
f 73/94/37 76/96/78 77/95/77
f 74/40/34 75/39/33 76/96/78
f 45/97/79 64/99/81 6/19/19
f 46/98/80 63/101/83 64/99/81
f 47/100/82 62/103/85 63/101/83
f 48/102/84 61/105/87 62/103/85
f 49/104/86 60/107/89 61/105/87
f 50/106/88 59/109/91 60/107/89
f 50/106/88 51/110/92 58/108/90
f 51/110/92 52/112/94 57/111/93
f 52/112/94 53/114/96 56/113/95
f 53/114/96 54/36/32 55/10/10
f 25/45/36 44/12/12 8/11/11
f 26/47/38 43/115/97 44/12/12
f 27/49/40 42/116/98 43/115/97
f 28/51/42 41/117/99 42/116/98
f 29/53/44 40/118/100 41/117/99
f 30/54/45 39/120/102 40/118/100
f 30/54/45 31/56/47 38/119/101
f 31/56/47 32/58/49 37/121/103
f 32/58/49 33/60/51 36/122/104
f 33/60/51 34/34/30 35/35/31
f 6/19/19 64/99/81 35/35/31
f 64/99/81 63/101/83 36/122/104
f 63/101/83 62/103/85 37/121/103
f 62/103/85 61/105/87 38/119/101
f 61/105/87 60/107/89 39/120/102
f 60/107/89 59/109/91 40/118/100
f 59/109/91 58/108/90 41/117/99
f 58/108/90 57/111/93 42/116/98
f 42/116/98 57/111/93 56/113/95
f 56/113/95 55/10/10 44/12/12
f 10/21/21 54/36/32 85/123/54
f 54/36/32 53/114/96 86/124/56
f 53/114/96 52/112/94 87/125/58
f 52/112/94 51/110/92 88/126/60
f 51/110/92 50/106/88 89/127/63
f 50/106/88 49/104/86 90/128/62
f 90/128/62 49/104/86 48/102/84
f 91/129/64 48/102/84 47/100/82
f 92/130/66 47/100/82 46/98/80
f 93/131/68 46/98/80 45/97/79
f 23/32/28 104/62/53 75/39/33
f 104/62/53 103/64/55 76/96/78
f 103/64/55 102/66/57 77/95/77
f 102/66/57 101/68/59 78/93/76
f 101/68/59 100/70/61 79/91/75
f 100/70/61 99/74/65 80/87/74
f 99/74/65 98/76/67 81/85/73
f 98/76/67 97/78/69 82/83/72
f 97/78/69 96/79/70 83/81/71
f 96/79/70 95/4/4 84/6/6
