# Blender v2.80 (sub 75) OBJ File: 'Tileset.blend'
# www.blender.org
o Shop_low.002_Cube.11598
v 0.448786 1.804382 -0.731559
v 0.448786 1.816424 -0.731559
v 0.588145 1.804382 -0.694218
v 0.588145 1.816424 -0.694218
v 0.690164 1.804382 -0.592200
v 0.690164 1.816424 -0.592200
v 0.727505 1.804382 -0.452840
v 0.727505 1.816424 -0.452840
v 0.690164 1.804382 -0.313480
v 0.690164 1.816424 -0.313480
v 0.588145 1.804382 -0.211462
v 0.588145 1.816424 -0.211462
v 0.448786 1.804382 -0.174121
v 0.448786 1.816424 -0.174121
v 0.309426 1.804382 -0.211462
v 0.309426 1.816424 -0.211462
v 0.207408 1.804382 -0.313480
v 0.207408 1.816424 -0.313480
v 0.170066 1.804382 -0.452840
v 0.170066 1.816424 -0.452840
v 0.207408 1.804382 -0.592199
v 0.207408 1.816424 -0.592199
v 0.309426 1.804382 -0.694218
v 0.309426 1.816424 -0.694218
v 0.448786 1.804859 -0.709446
v 0.577089 1.804859 -0.675068
v 0.577089 1.815946 -0.675068
v 0.448786 1.815946 -0.709446
v 0.671013 1.804859 -0.581143
v 0.671013 1.815946 -0.581143
v 0.705392 1.804859 -0.452840
v 0.705392 1.815946 -0.452840
v 0.671013 1.804859 -0.324537
v 0.671013 1.815946 -0.324537
v 0.577089 1.804859 -0.230612
v 0.577089 1.815946 -0.230612
v 0.448786 1.804859 -0.196234
v 0.448786 1.815946 -0.196234
v 0.320483 1.804859 -0.230612
v 0.320483 1.815946 -0.230612
v 0.226558 1.804859 -0.324537
v 0.226558 1.815946 -0.324537
v 0.192179 1.804859 -0.452840
v 0.192179 1.815946 -0.452840
v 0.226558 1.804859 -0.581143
v 0.226558 1.815946 -0.581143
v 0.320482 1.804859 -0.675067
v 0.320482 1.815946 -0.675067
vt 0.630466 0.750422
vt 0.581967 0.833566
vt 0.558219 0.750572
vt 0.654098 0.833352
vt 0.616866 0.916348
vt 0.685986 0.916094
vt 0.649072 0.999243
vt 0.718249 0.002081
vt 0.612124 0.084549
vt 0.643221 0.001809
vt 0.684380 0.084855
vt 0.582061 0.167868
vt 0.654580 0.168128
vt 0.558257 0.251259
vt 0.630793 0.251462
vt 0.541299 0.334614
vt 0.613800 0.334758
vt 0.531135 0.417921
vt 0.603596 0.418006
vt 0.527755 0.501177
vt 0.600169 0.501203
vt 0.531149 0.584374
vt 0.603512 0.584341
vt 0.541307 0.667507
vt 0.613614 0.667416
vt 0.452280 0.834118
vt 0.364054 0.751142
vt 0.428443 0.751025
vt 0.483842 0.917087
vt 0.387929 0.834287
vt 0.515293 0.996147
vt 0.417976 0.917328
vt 0.487737 0.084131
vt 0.467405 0.004110
vt 0.527680 0.004436
vt 0.451686 0.167585
vt 0.421426 0.083757
vt 0.427868 0.251077
vt 0.387015 0.167326
vt 0.410992 0.334538
vt 0.363228 0.250879
vt 0.400917 0.417952
vt 0.346383 0.334393
vt 0.397634 0.501313
vt 0.336343 0.417859
vt 0.401135 0.584616
vt 0.333099 0.501273
vt 0.411407 0.667855
vt 0.336644 0.584628
vt 0.346965 0.667920
vt 0.344340 1.000000
vt 0.294339 0.918154
vt 0.210937 0.417993
vt 0.220883 0.334424
vt 0.239105 0.751683
vt 0.263086 0.834934
vt 0.237639 0.250809
vt 0.261208 0.167150
vt 0.221891 0.668359
vt 0.211451 0.584966
vt 0.291881 0.083339
vt 0.346147 0.000000
vt 0.207796 0.501509
vt 0.718249 0.998974
vt 0.455454 0.996383
vn 0.0000 0.6601 -0.7511
vn 0.3755 -0.6602 -0.6505
vn 0.0000 -0.6602 -0.7511
vn 0.3755 0.6602 -0.6505
vn 0.6505 -0.6602 -0.3755
vn 0.6505 0.6602 -0.3755
vn 0.7511 -0.6602 0.0000
vn 0.7511 0.6602 0.0000
vn 0.6505 -0.6602 0.3755
vn 0.6505 0.6602 0.3755
vn 0.3755 -0.6602 0.6505
vn 0.3755 0.6602 0.6505
vn 0.0000 -0.6602 0.7511
vn 0.0000 0.6602 0.7511
vn -0.3755 -0.6602 0.6505
vn -0.3755 0.6602 0.6505
vn -0.6505 -0.6602 0.3755
vn -0.6505 0.6602 0.3755
vn -0.7511 -0.6602 0.0000
vn -0.7511 0.6602 0.0000
vn -0.6505 -0.6602 -0.3755
vn -0.6505 0.6602 -0.3755
vn -0.3755 -0.6602 -0.6505
vn -0.3755 0.6602 -0.6505
vn -0.3238 -0.7620 0.5608
vn 0.0000 0.7620 0.6475
vn 0.0000 -0.7620 0.6475
vn -0.5608 -0.7620 0.3238
vn -0.3238 0.7620 0.5608
vn -0.6475 -0.7620 0.0000
vn -0.5608 0.7620 0.3238
vn -0.5608 -0.7620 -0.3238
vn -0.6475 0.7620 0.0000
vn -0.3238 -0.7620 -0.5608
vn -0.5608 0.7620 -0.3238
vn 0.0000 -0.7620 -0.6475
vn -0.3238 0.7620 -0.5608
vn 0.3238 -0.7620 -0.5608
vn 0.0000 0.7620 -0.6475
vn 0.5608 -0.7620 -0.3238
vn 0.3238 0.7620 -0.5608
vn 0.6475 -0.7620 0.0000
vn 0.5608 0.7620 -0.3238
vn 0.5608 -0.7620 0.3238
vn 0.6475 0.7620 0.0000
vn 0.3238 -0.7620 0.5608
vn 0.5608 0.7620 0.3238
vn 0.3238 0.7620 0.5608
s 1
f 2/1/1 3/2/2 1/3/3
f 4/4/4 5/5/5 3/2/2
f 6/6/6 7/7/7 5/5/5
f 8/8/8 9/9/9 7/10/7
f 10/11/10 11/12/11 9/9/9
f 12/13/12 13/14/13 11/12/11
f 14/15/14 15/16/15 13/14/13
f 16/17/16 17/18/17 15/16/15
f 18/19/18 19/20/19 17/18/17
f 20/21/20 21/22/21 19/20/19
f 22/23/22 23/24/23 21/22/21
f 24/25/24 1/3/3 23/24/23
f 26/26/25 28/27/26 25/28/27
f 29/29/28 27/30/29 26/26/25
f 31/31/30 30/32/31 29/29/28
f 33/33/32 32/34/33 31/35/30
f 35/36/34 34/37/35 33/33/32
f 37/38/36 36/39/37 35/36/34
f 39/40/38 38/41/39 37/38/36
f 41/42/40 40/43/41 39/40/38
f 43/44/42 42/45/43 41/42/40
f 45/46/44 44/47/45 43/44/42
f 47/48/46 46/49/47 45/46/44
f 25/28/27 48/50/48 47/48/46
f 26/26/25 1/3/3 3/2/2
f 30/32/31 8/51/8 6/52/6
f 40/43/41 18/53/18 16/54/16
f 2/55/1 27/30/29 4/56/4
f 37/38/36 11/12/11 13/14/13
f 23/24/23 45/46/44 21/22/21
f 36/39/37 14/57/14 12/58/12
f 46/49/47 24/59/24 22/60/22
f 9/9/9 31/35/30 7/10/7
f 19/20/19 41/42/40 17/18/17
f 32/34/33 10/61/10 8/62/8
f 42/45/43 20/63/20 18/53/18
f 29/29/28 3/2/2 5/5/5
f 15/16/15 37/38/36 13/14/13
f 1/3/3 47/48/46 23/24/23
f 4/56/4 30/32/31 6/52/6
f 38/41/39 16/54/16 14/57/14
f 48/50/48 2/55/1 24/59/24
f 35/36/34 9/9/9 11/12/11
f 21/22/21 43/44/42 19/20/19
f 34/37/35 12/58/12 10/61/10
f 44/47/45 22/60/22 20/63/20
f 7/7/7 29/29/28 5/5/5
f 17/18/17 39/40/38 15/16/15
f 2/1/1 4/4/4 3/2/2
f 4/4/4 6/6/6 5/5/5
f 6/6/6 8/64/8 7/7/7
f 8/8/8 10/11/10 9/9/9
f 10/11/10 12/13/12 11/12/11
f 12/13/12 14/15/14 13/14/13
f 14/15/14 16/17/16 15/16/15
f 16/17/16 18/19/18 17/18/17
f 18/19/18 20/21/20 19/20/19
f 20/21/20 22/23/22 21/22/21
f 22/23/22 24/25/24 23/24/23
f 24/25/24 2/1/1 1/3/3
f 26/26/25 27/30/29 28/27/26
f 29/29/28 30/32/31 27/30/29
f 31/31/30 32/65/33 30/32/31
f 33/33/32 34/37/35 32/34/33
f 35/36/34 36/39/37 34/37/35
f 37/38/36 38/41/39 36/39/37
f 39/40/38 40/43/41 38/41/39
f 41/42/40 42/45/43 40/43/41
f 43/44/42 44/47/45 42/45/43
f 45/46/44 46/49/47 44/47/45
f 47/48/46 48/50/48 46/49/47
f 25/28/27 28/27/26 48/50/48
f 26/26/25 25/28/27 1/3/3
f 30/32/31 32/65/33 8/51/8
f 40/43/41 42/45/43 18/53/18
f 2/55/1 28/27/26 27/30/29
f 37/38/36 35/36/34 11/12/11
f 23/24/23 47/48/46 45/46/44
f 36/39/37 38/41/39 14/57/14
f 46/49/47 48/50/48 24/59/24
f 9/9/9 33/33/32 31/35/30
f 19/20/19 43/44/42 41/42/40
f 32/34/33 34/37/35 10/61/10
f 42/45/43 44/47/45 20/63/20
f 29/29/28 26/26/25 3/2/2
f 15/16/15 39/40/38 37/38/36
f 1/3/3 25/28/27 47/48/46
f 4/56/4 27/30/29 30/32/31
f 38/41/39 40/43/41 16/54/16
f 48/50/48 28/27/26 2/55/1
f 35/36/34 33/33/32 9/9/9
f 21/22/21 45/46/44 43/44/42
f 34/37/35 36/39/37 12/58/12
f 44/47/45 46/49/47 22/60/22
f 7/7/7 31/31/30 29/29/28
f 17/18/17 41/42/40 39/40/38
