# Blender v2.80 (sub 75) OBJ File: 'Tileset.blend'
# www.blender.org
o Shop_low.004_Cube.11600
v 0.448786 1.858690 -0.767760
v 0.448786 1.872296 -0.767760
v 0.606246 1.858690 -0.725569
v 0.606246 1.872296 -0.725569
v 0.721515 1.858690 -0.610300
v 0.721515 1.872296 -0.610300
v 0.763706 1.858690 -0.452840
v 0.763706 1.872296 -0.452840
v 0.721515 1.858690 -0.295380
v 0.721515 1.872296 -0.295380
v 0.606246 1.858690 -0.180111
v 0.606246 1.872296 -0.180111
v 0.448786 1.858690 -0.137920
v 0.448786 1.872296 -0.137920
v 0.291326 1.858690 -0.180111
v 0.291326 1.872296 -0.180111
v 0.176057 1.858690 -0.295380
v 0.176057 1.872296 -0.295380
v 0.133866 1.858690 -0.452840
v 0.133866 1.872296 -0.452840
v 0.176057 1.858690 -0.610300
v 0.176057 1.872296 -0.610300
v 0.291326 1.858690 -0.725569
v 0.291326 1.872296 -0.725569
v 0.448786 1.859230 -0.742775
v 0.593753 1.859230 -0.703931
v 0.593753 1.871756 -0.703931
v 0.448786 1.871756 -0.742775
v 0.699877 1.859230 -0.597807
v 0.699877 1.871756 -0.597807
v 0.738721 1.859230 -0.452840
v 0.738721 1.871756 -0.452840
v 0.699877 1.859230 -0.307873
v 0.699877 1.871756 -0.307873
v 0.593753 1.859230 -0.201749
v 0.593753 1.871756 -0.201749
v 0.448786 1.859230 -0.162905
v 0.448786 1.871756 -0.162905
v 0.303818 1.859230 -0.201749
v 0.303818 1.871756 -0.201749
v 0.197695 1.859230 -0.307872
v 0.197695 1.871756 -0.307872
v 0.158851 1.859230 -0.452840
v 0.158851 1.871756 -0.452840
v 0.197695 1.859230 -0.597807
v 0.197695 1.871756 -0.597807
v 0.303818 1.859230 -0.703931
v 0.303818 1.871756 -0.703931
vt 0.624358 0.745557
vt 0.574095 0.828258
vt 0.552547 0.745699
vt 0.646723 0.828014
vt 0.616673 0.912693
vt 0.687975 0.912413
vt 0.646954 0.999259
vt 0.719222 0.002106
vt 0.612948 0.084024
vt 0.644687 0.001828
vt 0.684729 0.084335
vt 0.582230 0.166796
vt 0.654273 0.167061
vt 0.557730 0.249640
vt 0.629791 0.249849
vt 0.540033 0.332449
vt 0.612060 0.332600
vt 0.529084 0.415213
vt 0.601071 0.415305
vt 0.524876 0.497925
vt 0.596817 0.497959
vt 0.527399 0.580580
vt 0.599290 0.580555
vt 0.536640 0.663173
vt 0.608478 0.663089
vt 0.443048 0.828818
vt 0.359569 0.746241
vt 0.423547 0.746137
vt 0.479563 0.913447
vt 0.378093 0.828975
vt 0.507278 0.996002
vt 0.411716 0.913676
vt 0.489377 0.083595
vt 0.469998 0.004095
vt 0.529875 0.004426
vt 0.452709 0.166501
vt 0.423505 0.083218
vt 0.428194 0.249446
vt 0.388464 0.166238
vt 0.410576 0.332361
vt 0.363979 0.249242
vt 0.399715 0.415230
vt 0.346389 0.332210
vt 0.395602 0.498047
vt 0.335563 0.415131
vt 0.398229 0.580808
vt 0.331489 0.498001
vt 0.407582 0.663505
vt 0.334158 0.580813
vt 0.343560 0.663563
vt 0.327713 1.000000
vt 0.277555 0.914221
vt 0.210973 0.415251
vt 0.221706 0.332229
vt 0.235561 0.746767
vt 0.259000 0.829305
vt 0.239209 0.249159
vt 0.263480 0.166049
vt 0.219298 0.663986
vt 0.209778 0.581136
vt 0.294810 0.082789
vt 0.349574 0.000000
vt 0.207000 0.498222
vt 0.719223 0.998998
vt 0.444715 0.996223
vn 0.0000 0.6602 -0.7511
vn 0.3755 -0.6602 -0.6505
vn 0.0000 -0.6602 -0.7511
vn 0.3755 0.6601 -0.6505
vn 0.6505 -0.6602 -0.3755
vn 0.6505 0.6602 -0.3755
vn 0.7511 -0.6602 0.0000
vn 0.7511 0.6602 0.0000
vn 0.6505 -0.6602 0.3755
vn 0.6505 0.6602 0.3755
vn 0.3755 -0.6602 0.6505
vn 0.3755 0.6601 0.6505
vn 0.0000 -0.6602 0.7511
vn 0.0000 0.6602 0.7511
vn -0.3755 -0.6602 0.6505
vn -0.3755 0.6602 0.6505
vn -0.6505 -0.6602 0.3755
vn -0.6505 0.6602 0.3755
vn -0.7511 -0.6602 0.0000
vn -0.7511 0.6602 0.0000
vn -0.6505 -0.6602 -0.3755
vn -0.6505 0.6602 -0.3755
vn -0.3755 -0.6602 -0.6505
vn -0.3755 0.6602 -0.6505
vn -0.3238 -0.7620 0.5608
vn 0.0000 0.7620 0.6475
vn 0.0000 -0.7620 0.6475
vn -0.5608 -0.7620 0.3238
vn -0.3238 0.7620 0.5608
vn -0.6475 -0.7620 0.0000
vn -0.5608 0.7620 0.3238
vn -0.5608 -0.7620 -0.3238
vn -0.6475 0.7620 0.0000
vn -0.3238 -0.7620 -0.5608
vn -0.5608 0.7620 -0.3238
vn 0.0000 -0.7620 -0.6475
vn -0.3238 0.7620 -0.5608
vn 0.3238 -0.7620 -0.5608
vn 0.0000 0.7620 -0.6475
vn 0.5608 -0.7620 -0.3238
vn 0.3238 0.7620 -0.5608
vn 0.6475 -0.7620 0.0000
vn 0.5608 0.7620 -0.3238
vn 0.5608 -0.7620 0.3238
vn 0.6475 0.7620 0.0000
vn 0.3238 -0.7620 0.5608
vn 0.5608 0.7620 0.3238
vn 0.3238 0.7620 0.5608
s 1
f 2/1/1 3/2/2 1/3/3
f 4/4/4 5/5/5 3/2/2
f 6/6/6 7/7/7 5/5/5
f 8/8/8 9/9/9 7/10/7
f 10/11/10 11/12/11 9/9/9
f 12/13/12 13/14/13 11/12/11
f 14/15/14 15/16/15 13/14/13
f 16/17/16 17/18/17 15/16/15
f 18/19/18 19/20/19 17/18/17
f 20/21/20 21/22/21 19/20/19
f 22/23/22 23/24/23 21/22/21
f 24/25/24 1/3/3 23/24/23
f 26/26/25 28/27/26 25/28/27
f 29/29/28 27/30/29 26/26/25
f 31/31/30 30/32/31 29/29/28
f 33/33/32 32/34/33 31/35/30
f 35/36/34 34/37/35 33/33/32
f 37/38/36 36/39/37 35/36/34
f 39/40/38 38/41/39 37/38/36
f 41/42/40 40/43/41 39/40/38
f 43/44/42 42/45/43 41/42/40
f 45/46/44 44/47/45 43/44/42
f 47/48/46 46/49/47 45/46/44
f 25/28/27 48/50/48 47/48/46
f 26/26/25 1/3/3 3/2/2
f 30/32/31 8/51/8 6/52/6
f 40/43/41 18/53/18 16/54/16
f 2/55/1 27/30/29 4/56/4
f 37/38/36 11/12/11 13/14/13
f 47/48/46 21/22/21 23/24/23
f 36/39/37 14/57/14 12/58/12
f 46/49/47 24/59/24 22/60/22
f 33/33/32 7/10/7 9/9/9
f 19/20/19 41/42/40 17/18/17
f 32/34/33 10/61/10 8/62/8
f 42/45/43 20/63/20 18/53/18
f 29/29/28 3/2/2 5/5/5
f 15/16/15 37/38/36 13/14/13
f 1/3/3 47/48/46 23/24/23
f 4/56/4 30/32/31 6/52/6
f 38/41/39 16/54/16 14/57/14
f 48/50/48 2/55/1 24/59/24
f 35/36/34 9/9/9 11/12/11
f 45/46/44 19/20/19 21/22/21
f 10/61/10 36/39/37 12/58/12
f 44/47/45 22/60/22 20/63/20
f 31/31/30 5/5/5 7/7/7
f 17/18/17 39/40/38 15/16/15
f 2/1/1 4/4/4 3/2/2
f 4/4/4 6/6/6 5/5/5
f 6/6/6 8/64/8 7/7/7
f 8/8/8 10/11/10 9/9/9
f 10/11/10 12/13/12 11/12/11
f 12/13/12 14/15/14 13/14/13
f 14/15/14 16/17/16 15/16/15
f 16/17/16 18/19/18 17/18/17
f 18/19/18 20/21/20 19/20/19
f 20/21/20 22/23/22 21/22/21
f 22/23/22 24/25/24 23/24/23
f 24/25/24 2/1/1 1/3/3
f 26/26/25 27/30/29 28/27/26
f 29/29/28 30/32/31 27/30/29
f 31/31/30 32/65/33 30/32/31
f 33/33/32 34/37/35 32/34/33
f 35/36/34 36/39/37 34/37/35
f 37/38/36 38/41/39 36/39/37
f 39/40/38 40/43/41 38/41/39
f 41/42/40 42/45/43 40/43/41
f 43/44/42 44/47/45 42/45/43
f 45/46/44 46/49/47 44/47/45
f 47/48/46 48/50/48 46/49/47
f 25/28/27 28/27/26 48/50/48
f 26/26/25 25/28/27 1/3/3
f 30/32/31 32/65/33 8/51/8
f 40/43/41 42/45/43 18/53/18
f 2/55/1 28/27/26 27/30/29
f 37/38/36 35/36/34 11/12/11
f 47/48/46 45/46/44 21/22/21
f 36/39/37 38/41/39 14/57/14
f 46/49/47 48/50/48 24/59/24
f 33/33/32 31/35/30 7/10/7
f 19/20/19 43/44/42 41/42/40
f 32/34/33 34/37/35 10/61/10
f 42/45/43 44/47/45 20/63/20
f 29/29/28 26/26/25 3/2/2
f 15/16/15 39/40/38 37/38/36
f 1/3/3 25/28/27 47/48/46
f 4/56/4 27/30/29 30/32/31
f 38/41/39 40/43/41 16/54/16
f 48/50/48 28/27/26 2/55/1
f 35/36/34 33/33/32 9/9/9
f 45/46/44 43/44/42 19/20/19
f 10/61/10 34/37/35 36/39/37
f 44/47/45 46/49/47 22/60/22
f 31/31/30 29/29/28 5/5/5
f 17/18/17 41/42/40 39/40/38
